<svg width="183.639648" height="48.000000" viewBox="0 0 183.64 48" fill="none" xmlns="http://www.w3.org/2000/svg" xmlns:xlink="http://www.w3.org/1999/xlink">
	<desc>
			Created with Pixso.
	</desc>
	<defs>
		<clipPath id="clip15_5256">
			<rect width="47.750843" height="47.750843" transform="translate(0.124578 0.124578)" fill="white" fill-opacity="0"/>
		</clipPath>
	</defs>
	<rect width="183.639633" height="48.000000" fill="#FFFFFF" fill-opacity="0"/>
	<path d="M75.0546 29.1711C75.0546 31.4518 74.5193 33.1274 73.4487 34.1979Q71.843 35.8038 68.4917 35.8038Q65.1753 35.8038 61.4401 35.4547L61.4401 30.7419Q64.163 30.9165 67.0255 30.9165Q67.712 30.9165 68.1433 30.5847Q68.2164 30.5285 68.2822 30.4627C68.608 30.1369 68.771 29.7063 68.771 29.1711L68.771 15.9056L64.2328 15.9056L64.2328 11.0183L75.0546 11.0183L75.0546 29.1711ZM78.1951 35.4547L90.7623 35.4547L90.7623 30.5674L87.6205 30.5674L87.6205 15.9056L90.7623 15.9056L90.7623 11.0183L78.1951 11.0183L78.1951 15.9056L81.3369 15.9056L81.3369 30.5674L78.1951 30.5674L78.1951 35.4547ZM114.847 34.931Q106.678 35.8038 99.8359 35.8038Q96.4149 35.8038 94.8091 34.1979C93.7385 33.1274 93.2032 31.4518 93.2032 29.1711L93.2032 18.0001C93.2032 15.5565 93.7501 13.7878 94.844 12.6939Q96.5197 11.0183 100.185 11.0183L112.752 11.0183L112.752 15.9056L101.581 15.9056C100.185 15.9056 99.4869 16.6038 99.4869 18.0001L99.4869 29.1711C99.4869 29.7063 99.6382 30.1369 99.9407 30.4627C100.266 30.7652 100.697 30.9165 101.232 30.9165Q105.247 30.9165 108.563 30.7419L108.563 25.6801L104.025 25.6801L104.025 21.491L114.847 21.491L114.847 34.931ZM124.279 35.8038Q131.121 35.8038 139.29 34.931L139.29 21.491L128.468 21.491L128.468 25.6801L133.006 25.6801L133.006 30.7419C130.796 30.8583 128.352 30.9165 125.676 30.9165Q125.011 30.9165 124.561 30.6054L124.557 30.6027Q124.466 30.5391 124.384 30.4627C124.081 30.1369 123.93 29.7063 123.93 29.1711L123.93 18.0001Q123.93 16.9529 124.454 16.4292Q124.977 15.9056 126.025 15.9056L137.196 15.9056L137.196 11.0183L124.628 11.0183C122.185 11.0183 120.404 11.5768 119.287 12.6939Q117.646 14.3347 117.646 18.0001L117.646 29.1711C117.646 31.4518 118.182 33.1274 119.252 34.1979Q120.858 35.8038 124.279 35.8038ZM149.071 30.5674L161.813 30.5674L161.813 35.4547L142.788 35.4547L142.788 11.0183L149.071 11.0183L149.071 30.5674ZM164.265 35.4547L183.64 35.4547L183.64 30.5674L170.549 30.5674L170.549 25.5056L180.847 25.5056L180.847 20.6183L170.549 20.6183L170.549 15.9056L183.64 15.9056L183.64 11.0183L164.265 11.0183L164.265 35.4547Z" fill="#8896AB" fill-opacity="1.000000" fill-rule="evenodd"/>
	<rect width="47.750843" height="47.750843" transform="translate(0.124578 0.124578)" fill="#FFFFFF" fill-opacity="0"/>
	<g clip-path="url(#clip15_5256)">
		<path d="M2.65619 8.33014C3.36481 8.33319 4.04352 8.61609 4.54462 9.11719C5.04572 9.61829 5.32861 10.297 5.33173 11.0057C5.35046 11.7005 5.63971 12.3605 6.13776 12.8453C6.63586 13.3301 7.30347 13.6014 7.99847 13.6014C8.69354 13.6014 9.36115 13.3301 9.85919 12.8453C10.3573 12.3605 10.6465 11.7005 10.6653 11.0057L10.6653 2.67554C10.6683 1.96689 10.9512 1.28812 11.4523 0.787018C11.9534 0.28595 12.6321 0.00308228 13.3408 0C14.0468 0.00665283 14.7216 0.291229 15.2191 0.792053C15.7167 1.29285 15.9968 1.96957 15.9988 2.67554L15.9988 20.1648C15.9891 20.521 16.051 20.8756 16.1807 21.2076C16.3104 21.5395 16.5054 21.8421 16.7539 22.0975C17.0025 22.3529 17.2997 22.5559 17.6281 22.6945C17.9564 22.8331 18.3091 22.9045 18.6656 22.9045C19.022 22.9045 19.3748 22.8331 19.7031 22.6945C20.0314 22.5559 20.3287 22.3529 20.5773 22.0975C20.8259 21.8421 21.0207 21.5395 21.1504 21.2076C21.2801 20.8756 21.342 20.521 21.3323 20.1648L21.3323 11.0057C21.3354 10.297 21.6183 9.61829 22.1194 9.11719C22.6205 8.61609 23.2993 8.33319 24.0079 8.33014C24.7138 8.33679 25.3886 8.62137 25.8862 9.12219C26.3837 9.62302 26.6639 10.2997 26.666 11.0057L26.666 20.1648C26.666 20.8718 26.9468 21.5498 27.4467 22.0497C27.9467 22.5497 28.6246 22.8305 29.3317 22.8305C30.0387 22.8305 30.7168 22.5497 31.2167 22.0497C31.7167 21.5498 31.9975 20.8718 31.9975 20.1648L31.9975 2.67554C32.0006 1.96655 32.2838 1.28751 32.7853 0.786346C33.2867 0.285187 33.9659 0.00256348 34.6749 0C35.3817 0.00360107 36.0581 0.287262 36.556 0.788788C37.0539 1.29031 37.3326 1.96884 37.3311 2.67554L37.3311 11.0057C37.3499 11.7005 37.639 12.3605 38.1371 12.8453C38.6351 13.3301 39.3027 13.6014 39.9978 13.6014C40.6929 13.6014 41.3605 13.3301 41.8586 12.8453C42.3567 12.3605 42.6458 11.7005 42.6646 11.0057C42.6677 10.2967 42.9508 9.61765 43.4523 9.11649C43.9539 8.61536 44.6332 8.3327 45.3422 8.33014C46.0488 8.33374 46.7252 8.6174 47.2231 9.11896C47.7211 9.62048 47.9998 10.299 47.9982 11.0057L47.9982 37.0138C47.9956 37.7174 47.715 38.3915 47.2174 38.8891C46.7198 39.3866 46.0458 39.6673 45.3422 39.6699C44.6361 39.6684 43.9592 39.3887 43.458 38.8915C42.9568 38.3944 42.6718 37.7197 42.6646 37.0138C42.6742 36.6575 42.6124 36.3029 42.4827 35.971C42.353 35.639 42.1581 35.3364 41.9095 35.081C41.6609 34.8256 41.3636 34.6226 41.0353 34.484C40.707 34.3454 40.3542 34.274 39.9978 34.274C39.6414 34.274 39.2887 34.3454 38.9603 34.484C38.632 34.6226 38.3347 34.8256 38.0862 35.081C37.8376 35.3364 37.6426 35.639 37.5129 35.971C37.3832 36.3029 37.3215 36.6575 37.3311 37.0138L37.3311 45.3342C37.3316 45.6832 37.2632 46.0289 37.1299 46.3515C36.9967 46.6741 36.8011 46.9673 36.5544 47.2141C36.3077 47.4611 36.0146 47.6569 35.6921 47.7904C35.3696 47.9239 35.024 47.9925 34.6749 47.9922C33.9681 47.9933 33.2896 47.7141 32.7881 47.2159C32.2866 46.7177 32.0031 46.0411 31.9994 45.3342L31.9994 27.8216C31.9994 27.1146 31.7186 26.4366 31.2187 25.9366C30.7188 25.4367 30.0407 25.1558 29.3337 25.1558C28.6266 25.1558 27.9485 25.4367 27.4487 25.9366C26.9487 26.4366 26.6678 27.1146 26.6678 27.8216L26.6678 37.0002C26.6617 37.7031 26.3797 38.3754 25.8824 38.8722C25.3853 39.3691 24.7128 39.6506 24.0099 39.6562C23.3043 39.6542 22.6278 39.3743 22.127 38.8772C21.6263 38.3801 21.3415 37.7057 21.3344 37.0002L21.3344 27.8216C21.3156 27.1268 21.0264 26.4668 20.5283 25.982C20.0302 25.4972 19.3626 25.2259 18.6675 25.2259C17.9725 25.2259 17.3048 25.4972 16.8068 25.982C16.3087 26.4668 16.0195 27.1268 16.0008 27.8216L16.0008 45.3342C15.9987 46.0385 15.718 46.7134 15.22 47.2114C14.7219 47.7095 14.0471 47.9902 13.3427 47.9922C12.6357 47.9938 11.9569 47.7148 11.4553 47.2165C10.9537 46.7182 10.6703 46.0412 10.6672 45.3342L10.6672 37.006C10.6768 36.6497 10.6149 36.2951 10.4852 35.9632C10.3555 35.6312 10.1607 35.3286 9.91211 35.0732C9.66357 34.8178 9.36627 34.6148 9.0379 34.4762C8.70959 34.3376 8.35681 34.2662 8.00043 34.2662C7.64398 34.2662 7.2912 34.3376 6.96289 34.4762C6.63452 34.6148 6.33734 34.8178 6.08875 35.0732C5.84015 35.3286 5.64526 35.6312 5.51556 35.9632C5.38586 36.2951 5.32397 36.6497 5.33362 37.006C5.32642 37.7116 5.04169 38.3859 4.54095 38.8831C4.04016 39.3802 3.36371 39.6601 2.65808 39.662C1.9552 39.6565 1.28271 39.3749 0.785461 38.8781C0.288269 38.3812 0.00622559 37.7089 0.00012207 37.006L0.00012207 11.0057C0.00213623 10.2997 0.282227 9.62302 0.779785 9.12219C1.27734 8.62137 1.95215 8.33679 2.65808 8.33014L2.65619 8.33014ZM10.6653 18.6762C10.6749 18.3199 10.613 17.9653 10.4833 17.6334C10.3536 17.3014 10.1587 16.9988 9.91016 16.7434C9.66156 16.488 9.36438 16.285 9.03601 16.1464C8.7077 16.0078 8.35492 15.9364 7.99847 15.9364C7.64209 15.9364 7.28931 16.0078 6.961 16.1464C6.63263 16.285 6.33533 16.488 6.08679 16.7434C5.8382 16.9988 5.64337 17.3014 5.51367 17.6334C5.38397 17.9653 5.32208 18.3199 5.33173 18.6762L5.33173 29.3433C5.35046 30.0381 5.63971 30.6981 6.13776 31.1829C6.63586 31.6677 7.30347 31.939 7.99847 31.939C8.69354 31.939 9.36115 31.6677 9.85919 31.1829C10.3573 30.6981 10.6465 30.0381 10.6653 29.3433L10.6653 18.6762ZM37.3233 29.3433L37.3233 18.6762C37.3137 18.3199 37.3755 17.9653 37.5051 17.6334C37.6348 17.3014 37.8298 16.9988 38.0784 16.7434C38.327 16.488 38.6242 16.285 38.9526 16.1464C39.2809 16.0078 39.6337 15.9364 39.9901 15.9364C40.3465 15.9364 40.6992 16.0078 41.0275 16.1464C41.3559 16.285 41.6531 16.488 41.9017 16.7434C42.1503 16.9988 42.3453 17.3014 42.4749 17.6334C42.6046 17.9653 42.6664 18.3199 42.6568 18.6762L42.6568 29.3433C42.638 30.0381 42.3489 30.6981 41.8508 31.1829C41.3527 31.6677 40.6852 31.939 39.9901 31.939C39.295 31.939 38.6274 31.6677 38.1293 31.1829C37.6312 30.6981 37.3421 30.0381 37.3233 29.3433Z" fill="#8896AB" fill-opacity="1.000000" fill-rule="evenodd"/>
	</g>
</svg>
