<svg width="154.076294" height="43.636353" viewBox="0 0 154.076 43.6364" fill="none" xmlns="http://www.w3.org/2000/svg" xmlns:xlink="http://www.w3.org/1999/xlink">
	<desc>
			Created with Pixso.
	</desc>
	<defs>
		<clipPath id="clip15_5511">
			<rect width="39.095680" height="43.489559" transform="translate(0.073403 0.073403)" fill="white" fill-opacity="0"/>
		</clipPath>
	</defs>
	<rect width="154.076324" height="43.636364" fill="#FFFFFF" fill-opacity="0"/>
	<path d="M52.4814 14.5483C52.4814 22.4029 60.925 23.4633 60.925 29.1185C60.925 31.0822 60.0612 31.7891 58.6865 31.7891C57.312 31.7891 56.448 31.0822 56.448 29.1185L56.448 27.1549L52.3636 27.1549L52.3636 28.8436C52.3636 33.2422 54.5629 35.7556 58.8043 35.7556C63.0458 35.7556 65.2451 33.2422 65.2451 28.8436C65.2451 20.9891 56.8015 19.9287 56.8015 14.2734C56.8015 12.3098 57.5869 11.5636 58.9614 11.5636C60.3361 11.5636 61.1215 12.3098 61.1215 14.2734L61.1215 15.4124L65.2058 15.4124L65.2058 14.5483C65.2058 10.1498 63.0458 7.63635 58.8436 7.63635C54.6415 7.63635 52.4814 10.1498 52.4814 14.5483ZM149.992 25.1913L149.992 29.1185C149.992 31.0822 149.128 31.7891 147.753 31.7891C146.379 31.7891 145.515 31.0822 145.515 29.1185L145.515 14.2734C145.515 12.3098 146.379 11.5636 147.753 11.5636C149.128 11.5636 149.992 12.3098 149.992 14.2734L149.992 17.2189L154.076 17.2189L154.076 14.5483C154.076 10.1498 151.877 7.63635 147.636 7.63635C143.394 7.63635 141.195 10.1498 141.195 14.5483L141.195 28.8436C141.195 33.2422 143.394 35.7556 147.636 35.7556C151.877 35.7556 154.076 33.2422 154.076 28.8436L154.076 25.1913L149.992 25.1913ZM71.4968 35.4414L75.8168 35.4414L75.8168 26.3302L81.2758 7.95053L77.1521 7.95053L73.8531 20.4785L70.5543 7.95053L66.038 7.95053L71.4968 26.3302L71.4968 35.4414ZM88.9922 7.95053L82.9835 7.95053L82.9835 35.4414L86.7537 35.4414L86.7537 16.0014L89.974 35.4414L94.0583 35.4414L97.0431 15.7265L97.0431 35.4414L101.127 35.4414L101.127 7.95053L95.1188 7.95053L92.1733 27.4691L88.9922 7.95053ZM103.013 11.8778L107.53 11.8778L107.53 35.4414L111.85 35.4414L111.85 11.8778L116.366 11.8778L116.366 7.95053L103.013 7.95053L103.013 11.8778ZM131.7 35.4414C131.268 34.4203 131.229 33.4385 131.229 32.1033L131.229 27.8618C131.229 24.9949 130.522 22.9135 128.362 22.0102C130.286 21.1069 131.189 19.2611 131.189 16.4334L131.189 14.2734C131.189 10.032 129.265 7.95053 124.788 7.95053L118.269 7.95053L118.269 35.4414L122.589 35.4414L122.589 24.2487L124.081 24.2487C126.045 24.2487 126.908 25.1913 126.908 27.744L126.908 32.064C126.908 34.3026 127.066 34.7345 127.301 35.4414L131.7 35.4414ZM134.07 35.4414L138.39 35.4414L138.39 7.95053L134.07 7.95053L134.07 35.4414ZM124.67 11.8778C126.202 11.8778 126.869 12.7418 126.869 14.7054L126.869 17.4153C126.869 19.6145 125.887 20.3214 124.277 20.3214L122.589 20.3214L122.589 11.8778L124.67 11.8778Z" fill="#8896AB" fill-opacity="1.000000" fill-rule="evenodd"/>
	<rect width="39.095680" height="43.489559" transform="translate(0.073403 0.073403)" fill="#7F46F0" fill-opacity="0"/>
	<g clip-path="url(#clip15_5511)">
		<path d="M14.8435 13.8349L12.4829 17.9161L10.2367 14.0199L12.5856 9.93872L28.9926 9.93872L32.4763 3.89624L9.099 3.89624L4.49231 11.8868C7.948 17.8569 11.3984 23.827 14.8435 29.7971L21.8109 29.7971C20.0609 26.768 18.312 23.7394 16.5641 20.7113L16.0796 19.873L32.0476 19.873L38.9152 31.7643L32.0476 43.6364L6.85291 43.6364L0.0557861 31.6497L3.46912 25.7217L5.72986 29.6165L4.50696 31.7496L9.11365 39.7402L29.7882 39.7402L34.4097 31.7496L29.803 23.759L22.8356 23.759C24.3135 26.333 25.7922 28.9064 27.272 31.4794L27.4393 31.7452L26.3163 33.6933L12.5974 33.6933C8.4447 26.5125 4.29749 19.3372 0.15564 12.1672L0 11.8824L6.85291 -0.00878906L39.2411 -0.00878906L31.2563 13.8349L14.8435 13.8349Z" fill="#8896AB" fill-opacity="1.000000" fill-rule="evenodd"/>
	</g>
</svg>
