<svg width="182.965942" height="48.000000" viewBox="0 0 182.966 48" fill="none" xmlns="http://www.w3.org/2000/svg" xmlns:xlink="http://www.w3.org/1999/xlink">
	<desc>
			Created with Pixso.
	</desc>
	<defs>
		<clipPath id="clip15_5417">
			<rect width="47.596584" height="47.454544" transform="translate(0.272727 0.272727)" fill="white" fill-opacity="0"/>
		</clipPath>
	</defs>
	<rect width="182.965912" height="48.000000" fill="#FFFFFF" fill-opacity="0"/>
	<rect width="47.596584" height="47.454544" transform="translate(0.272727 0.272727)" fill="#FFFFFF" fill-opacity="0"/>
	<g clip-path="url(#clip15_5417)">
		<path d="M26.7092 47.0853C31.9041 46.4788 36.7423 44.1368 40.4406 40.4386C44.1388 36.7403 46.4807 31.9021 47.0873 26.7073L38.3564 26.7073C37.8058 29.5903 36.4005 32.2411 34.3234 34.3149C32.2462 36.3887 29.5931 37.7896 26.7092 38.3356L26.7092 47.0853Z" fill="#8896AB" fill-opacity="1.000000" fill-rule="evenodd"/>
		<path d="M34.4646 3.24622L34.5195 3.21024C40.1689 -0.0358582 44.7369 -0.990387 46.8638 1.13831C52.8805 7.15323 35.9133 25.8627 30.887 30.889C27.8643 33.9207 24.661 36.7666 21.2946 39.4114L21.2946 47.0797C18.5881 46.7724 15.9585 45.9835 13.5298 44.7502L13.4749 44.7862C7.82544 48.0323 3.2594 48.9868 1.13074 46.8694C-1.78589 43.9529 1.62683 37.2392 3.24036 34.4684C2.01477 32.0367 1.22632 29.4084 0.911011 26.7036L9.66052 26.7036C10.0432 28.7343 10.8525 30.6608 12.035 32.3555C13.2175 34.0503 14.7462 35.4747 16.5201 36.5347C15.5107 37.2676 14.4843 37.9645 13.4199 38.6179C11.8612 39.6084 10.2477 40.5439 8.57727 41.3867C7.27002 40.2291 6.10071 38.9244 5.09265 37.4986C3.3313 40.8924 2.74426 43.3866 3.67981 44.3165C7.69666 48.2936 25.7642 31.6977 28.7356 28.7263C31.8992 25.5669 34.8583 22.2092 37.5951 18.6736C36.6932 16.3689 35.2202 14.3315 33.3142 12.7528C31.4082 11.1741 29.1321 10.1062 26.6997 9.64935L26.6997 0.899689C29.4067 1.20422 32.0369 1.99329 34.4646 3.22913L34.4646 3.24622ZM42.9017 10.4921C44.663 7.09833 45.2501 4.6041 44.3145 3.67422C43.3789 2.74432 40.9056 3.3447 37.5099 5.10599C39.5974 6.58746 41.4202 8.41028 42.9017 10.4978L42.9017 10.4921Z" fill="#8896AB" fill-opacity="1.000000" fill-rule="evenodd"/>
		<path d="M21.2985 0.916748C16.1034 1.52365 11.2653 3.86597 7.56702 7.56454C3.86877 11.2632 1.52686 16.1016 0.92041 21.2967L9.67004 21.2967C10.2134 18.4133 11.6138 15.7608 13.6882 13.6859C15.7628 11.611 18.4152 10.2101 21.2985 9.66638L21.2985 0.916748Z" fill="#8896AB" fill-opacity="1.000000" fill-rule="evenodd"/>
	</g>
	<path d="M96.9886 13.3296C96.9886 13.7614 96.9034 14.1648 96.7329 14.5398C96.5739 14.9148 96.3523 15.2444 96.0682 15.5284C95.7841 15.8011 95.4489 16.0227 95.0625 16.1932C94.6875 16.3523 94.2841 16.4319 93.8523 16.4319C93.4204 16.4319 93.0114 16.3523 92.625 16.1932C92.25 16.0227 91.9204 15.8011 91.6364 15.5284C91.3636 15.2444 91.1421 14.9148 90.9716 14.5398Q90.9382 14.461 90.9094 14.3806L90.9093 14.3803Q90.7329 13.8864 90.7329 13.3296Q90.7329 12.8893 90.8492 12.4822Q90.8995 12.3062 90.9716 12.1364C91.1421 11.75 91.3636 11.4205 91.6364 11.1477C91.9204 10.8636 92.25 10.6421 92.625 10.483C93.0114 10.3125 93.4204 10.2273 93.8523 10.2273C94.2841 10.2273 94.6875 10.3125 95.0625 10.483C95.4489 10.6421 95.7841 10.8636 96.0682 11.1477C96.3523 11.4205 96.5739 11.75 96.7329 12.1364C96.9034 12.5114 96.9886 12.9091 96.9886 13.3296ZM122.71 36.5455L118.057 36.5455L118.057 11.0284L122.71 11.0284L122.71 19.0909C123.267 18.6705 123.841 18.375 124.432 18.2046C125.023 18.0227 125.625 17.9319 126.239 17.9319C127.364 17.9319 128.42 18.1477 129.409 18.5796C130.398 19 131.256 19.5852 131.983 20.3352C132.722 21.0739 133.301 21.9432 133.722 22.9432Q133.885 23.3167 134.007 23.7033Q134.369 24.8513 134.369 26.1136L134.369 36.5455L129.682 36.5455L129.682 26.1136L129.716 26.1136C129.716 25.6364 129.625 25.1875 129.443 24.7671C129.261 24.3352 129.011 23.9602 128.693 23.6421C128.375 23.3239 128.006 23.0739 127.585 22.8921C127.165 22.7102 126.716 22.6194 126.239 22.6194C125.75 22.6194 125.29 22.7102 124.858 22.8921C124.426 23.0739 124.051 23.3239 123.733 23.6421Q123.623 23.7516 123.525 23.8701L123.525 23.8701Q123.193 24.268 122.983 24.7671C122.801 25.1875 122.71 25.6364 122.71 26.1136L122.71 36.5455ZM160.722 36.5455L156.034 36.5455L156.034 11.0284L160.722 11.0284L160.722 36.5455ZM87.6136 29.5569C87.6136 30.5682 87.4204 31.5228 87.0341 32.4205Q86.6957 33.2205 86.1968 33.9032L86.1967 33.9033L86.1967 33.9034Q85.8665 34.3552 85.4659 34.7557C84.8068 35.4148 84.0284 35.9375 83.1307 36.3239C82.2443 36.6989 81.2954 36.8864 80.2841 36.8864C79.375 36.8864 78.5 36.7273 77.6591 36.4091C76.8296 36.0909 76.0796 35.625 75.4091 35.0114C74.7386 35.625 73.9829 36.0909 73.1421 36.4091C72.3011 36.7273 71.4261 36.8864 70.5171 36.8864C69.5057 36.8864 68.5511 36.6989 67.6534 36.3239C66.7671 35.9375 65.9886 35.4148 65.3182 34.7557Q65.0322 34.4648 64.7805 34.1469Q64.1619 33.3654 63.75 32.4205Q63.6085 32.0818 63.5027 31.7324Q63.1875 30.6924 63.1875 29.5569L63.1875 12.1023L68.0796 12.1023L68.0796 29.5569C68.0796 29.8978 68.1421 30.2216 68.2671 30.5284C68.3921 30.8239 68.5625 31.0852 68.7784 31.3125C69.0057 31.5284 69.2671 31.6989 69.5625 31.8239C69.8579 31.9489 70.1761 32.0114 70.5171 32.0114C70.8579 32.0114 71.1761 31.9489 71.4716 31.8239C71.7671 31.6989 72.0227 31.5284 72.2386 31.3125C72.4659 31.0852 72.6421 30.8239 72.7671 30.5284C72.8921 30.2216 72.9546 29.8978 72.9546 29.5569L72.9546 12.1023L77.8466 12.1023L77.8466 29.5569C77.8466 29.8978 77.9091 30.2216 78.0341 30.5284C78.1591 30.8239 78.3296 31.0852 78.5454 31.3125C78.7727 31.5284 79.0341 31.6989 79.3296 31.8239C79.625 31.9489 79.9432 32.0114 80.2841 32.0114C80.625 32.0114 80.9432 31.9489 81.2386 31.8239C81.5341 31.6989 81.7898 31.5284 82.0057 31.3125C82.2329 31.0852 82.4091 30.8239 82.5341 30.5284C82.6704 30.2216 82.7386 29.8978 82.7386 29.5569L82.7386 12.1023L87.6136 12.1023L87.6136 29.5569ZM144.955 32.0796C145.136 32.1364 145.318 32.1761 145.5 32.1989C145.682 32.2103 145.864 32.2159 146.045 32.2159C146.5 32.2159 146.938 32.1534 147.358 32.0284C147.778 31.9034 148.17 31.7273 148.534 31.5C148.909 31.2614 149.239 30.9773 149.523 30.6478C149.818 30.3069 150.057 29.9319 150.239 29.5227L153.648 32.9489C153.216 33.5625 152.716 34.1136 152.148 34.6023C151.591 35.0909 150.983 35.5057 150.324 35.8466C149.676 36.1875 148.989 36.4432 148.261 36.6136C147.545 36.7955 146.807 36.8864 146.045 36.8864C144.761 36.8864 143.551 36.6477 142.415 36.1705C141.29 35.6932 140.301 35.0284 139.449 34.1761C138.608 33.3239 137.943 32.3125 137.455 31.1421C136.966 29.9602 136.722 28.6648 136.722 27.2557C136.722 25.8125 136.966 24.4944 137.455 23.3011C137.943 22.108 138.608 21.0909 139.449 20.25C140.301 19.4091 141.29 18.7557 142.415 18.2898C143.551 17.8239 144.761 17.5909 146.045 17.5909C146.807 17.5909 147.551 17.6819 148.278 17.8636Q149.276 18.113 150.174 18.5619L150.182 18.5663Q150.262 18.6062 150.341 18.6477C151 18.9886 151.614 19.4091 152.182 19.9091C152.75 20.3977 153.25 20.9489 153.682 21.5625L144.955 32.0796ZM168.972 43.5L164.284 43.5L164.284 18.2898L165.409 18.2898L167.267 20.4886C167.688 20.0909 168.148 19.7159 168.648 19.3636C169.148 19.0114 169.665 18.7102 170.199 18.4602C170.744 18.1989 171.307 17.9944 171.886 17.8466Q172.49 17.6929 173.101 17.6458L173.101 17.6458Q173.371 17.625 173.642 17.625Q175.265 17.625 176.719 18.1215L176.724 18.123Q176.993 18.2149 177.256 18.3239C178.392 18.7784 179.381 19.4261 180.222 20.2671C181.074 21.108 181.744 22.125 182.233 23.3182C182.722 24.5 182.966 25.8125 182.966 27.2557C182.966 28.7557 182.722 30.108 182.233 31.3125C181.744 32.5057 181.074 33.5227 180.222 34.3636C179.381 35.1932 178.392 35.8296 177.256 36.2728Q177.123 36.325 176.989 36.3732Q175.417 36.9375 173.642 36.9375C173.233 36.9375 172.824 36.8921 172.415 36.8011C172.017 36.7102 171.619 36.5909 171.222 36.4432C170.835 36.2841 170.449 36.108 170.062 35.9148C169.688 35.7216 169.324 35.5228 168.972 35.3182L168.972 43.5ZM96.1875 36.5455L91.5 36.5455L91.5 18.2898L96.1875 18.2898L96.1875 36.5455ZM109.773 36.5455L99.1364 36.5455L99.1364 31.9091L109.773 31.9091C110.091 31.9091 110.364 31.7955 110.591 31.5682C110.818 31.3409 110.932 31.0682 110.932 30.75C110.932 30.4205 110.818 30.2046 110.591 30.1023C110.364 30 110.091 29.9489 109.773 29.9489L104.932 29.9489C104.125 29.9489 103.369 29.7955 102.665 29.4886C101.96 29.1819 101.347 28.7671 100.824 28.2444Q100.598 28.0133 100.399 27.7611L100.399 27.761Q99.907 27.1384 99.5796 26.3864C99.2841 25.6819 99.1364 24.9261 99.1364 24.1194C99.1364 23.3125 99.2841 22.5569 99.5796 21.8523Q99.9368 21.0319 100.489 20.3758L100.49 20.3754Q100.649 20.1866 100.824 20.0114C101.347 19.4886 101.96 19.0796 102.665 18.7841C103.369 18.4773 104.125 18.3239 104.932 18.3239L114.358 18.3239L114.358 22.9602L104.932 22.9602C104.614 22.9602 104.341 23.0739 104.114 23.3011C103.886 23.5284 103.773 23.8011 103.773 24.1194C103.773 24.4489 103.886 24.733 104.114 24.9716Q104.29 25.1479 104.503 25.2331Q104.701 25.3125 104.932 25.3125L109.773 25.3125C110.568 25.3125 111.318 25.4489 112.023 25.7216C112.727 25.983 113.341 26.3523 113.864 26.8296Q114.056 27.0056 114.229 27.199L114.23 27.1996Q114.761 27.793 115.108 28.5511C115.415 29.2216 115.568 29.9546 115.568 30.75C115.568 31.5569 115.415 32.3125 115.108 33.0171C114.801 33.7103 114.386 34.3239 113.864 34.858C113.341 35.3807 112.727 35.7955 112.023 36.1023C111.318 36.3978 110.568 36.5455 109.773 36.5455ZM147.341 22.483C147.125 22.4034 146.909 22.3523 146.693 22.3296C146.489 22.3069 146.273 22.2955 146.045 22.2955C145.409 22.2955 144.807 22.4148 144.239 22.6534C143.682 22.8807 143.193 23.2103 142.773 23.6421C142.364 24.0739 142.04 24.5966 141.801 25.2102C141.562 25.8125 141.443 26.4944 141.443 27.2557C141.443 27.4261 141.449 27.6194 141.46 27.8352C141.483 28.0511 141.511 28.2727 141.545 28.5C141.591 28.7159 141.642 28.9261 141.699 29.1307C141.756 29.3352 141.83 29.5171 141.92 29.6761L147.341 22.483ZM178.295 27.2557C178.295 26.483 178.17 25.7898 177.92 25.1761C177.682 24.5625 177.352 24.0455 176.932 23.625C176.511 23.1932 176.017 22.8636 175.449 22.6364C174.881 22.4091 174.278 22.2955 173.642 22.2955C173.006 22.2955 172.403 22.4091 171.835 22.6364C171.278 22.8636 170.79 23.1932 170.369 23.625C169.949 24.0455 169.614 24.5625 169.364 25.1761C169.125 25.7898 169.006 26.483 169.006 27.2557C169.006 27.9944 169.125 28.6705 169.364 29.2841C169.614 29.8978 169.949 30.4205 170.369 30.8523C170.79 31.2841 171.278 31.6194 171.835 31.858C172.403 32.0966 173.006 32.2159 173.642 32.2159C174.278 32.2159 174.881 32.0966 175.449 31.858C176.017 31.6194 176.511 31.2841 176.932 30.8523C177.352 30.4205 177.682 29.8978 177.92 29.2841C178.17 28.6705 178.295 27.9944 178.295 27.2557Z" fill="#8896AB" fill-opacity="1.000000" fill-rule="evenodd"/>
</svg>
