<svg width="175.636353" height="43.636353" viewBox="0 0 175.636 43.6364" fill="none" xmlns="http://www.w3.org/2000/svg" xmlns:xlink="http://www.w3.org/1999/xlink">
	<desc>
			Created with Pixso.
	</desc>
	<defs>
		<clipPath id="clip15_5603">
			<rect width="47.851936" height="43.488300" transform="translate(0.074031 0.074031)" fill="white" fill-opacity="0"/>
		</clipPath>
	</defs>
	<rect width="175.636368" height="43.636364" fill="#FFFFFF" fill-opacity="0"/>
	<rect width="47.851936" height="43.488300" transform="translate(0.074031 0.074031)" fill="#FFFFFF" fill-opacity="0"/>
	<g clip-path="url(#clip15_5603)">
		<path d="M39.4587 2.51614C39.7131 2.60574 39.9348 2.76962 40.0951 2.98657C40.2554 3.20355 40.3469 3.46362 40.3578 3.73315C40.496 5.17249 40.5549 6.61835 40.5342 8.06415C40.519 8.72742 40.5038 9.39066 40.4597 10.0539C40.2102 9.9505 39.9744 9.84705 39.7234 9.74969C39.0906 9.50021 38.4714 9.26443 37.837 9.04233C37.8523 8.70459 37.8676 8.38055 37.8676 8.04132C37.8812 6.96579 37.8523 5.87506 37.764 4.77063C36.7327 4.44662 35.6571 4.15149 34.5695 3.88678C33.2003 3.56277 31.8312 3.29654 30.4437 3.10489C29.6633 3.00296 28.9119 2.91318 28.1908 2.84018C27.4697 2.76715 26.7015 2.72302 25.9211 2.68805C25.3126 2.67282 24.7421 2.65915 24.1245 2.65915L23.2255 2.67285C22.9592 2.67285 22.6504 2.68805 22.3264 2.68805C21.546 2.71848 20.7946 2.77628 20.0568 2.84018C19.3188 2.90405 18.5841 3.00296 17.8037 3.10489C16.4346 3.29654 15.0487 3.56125 13.6781 3.88678C12.5874 4.15149 11.527 4.44662 10.4834 4.77063C10.304 7.19226 10.3682 9.62582 10.6752 12.0346C10.838 13.3821 11.0742 14.7197 11.3826 16.0416C11.559 16.7931 11.7659 17.5446 11.9911 18.2656L12.0062 18.325L12.0199 18.3843L12.0352 18.4436L12.0641 18.5014L12.0793 18.5608L12.0945 18.6201L12.1096 18.6794L12.1675 18.8407L12.1675 18.8559L12.1827 18.9137L12.2861 19.1936L12.2998 19.2529L12.3896 19.4887L12.4033 19.5328C12.8583 20.8521 13.385 22.1456 13.9808 23.4075L14.0098 23.4516L14.025 23.4972L14.0387 23.5261L14.069 23.5703L14.0828 23.6143L14.098 23.6585L14.1268 23.6874C14.349 24.1437 14.5833 24.6001 14.8206 25.0565C14.9971 25.3516 15.1582 25.665 15.321 25.9404C15.5127 26.2801 15.6897 26.5747 15.8519 26.8242C16.3524 27.635 16.8818 28.4306 17.4432 29.1974C18.0045 29.9641 18.5765 30.7003 19.2109 31.4366C19.4471 31.7166 19.7124 32.0111 20.0065 32.3205C20.2864 32.6247 20.5511 32.929 20.8021 33.1891C21.4502 33.8524 22.1271 34.4867 22.8055 35.1044L23.0854 35.3401C22.8938 35.4923 22.7021 35.6444 22.4968 35.7965C21.9659 36.1936 21.4213 36.5769 20.8751 36.9603C17.9315 34.3214 15.3989 31.2572 13.3617 27.8693L13.3617 27.8541L13.3464 27.8404L13.3313 27.8252C13.2141 27.6335 13.1106 27.4418 13.0072 27.2806C12.8307 26.9565 12.639 26.631 12.4778 26.3222C11.991 25.4384 11.5483 24.5256 11.1224 23.5672C10.6964 22.6088 10.3268 21.6671 9.98755 20.724C9.51367 19.3907 9.11047 18.0334 8.77966 16.6577C7.77881 12.425 7.48022 8.05658 7.89587 3.72705C7.90833 3.45712 8.00208 3.1973 8.16504 2.98169C8.328 2.76611 8.55237 2.60489 8.80859 2.5192C10.2081 2.04761 11.6381 1.63535 13.0818 1.28088C14.4966 0.956879 15.9539 0.672394 17.4432 0.45636C18.2039 0.352936 19.004 0.264709 19.8438 0.191681C20.6545 0.117126 21.4502 0.0593262 22.2306 0.0289001C22.5258 0.0289001 22.839 0.0137024 23.1737 0.0137024L24.1322 0L25.089 0.0137024C25.4282 0.0137024 25.7522 0.0289001 26.0321 0.0289001C26.8278 0.0593262 27.6234 0.117126 28.4342 0.191681C29.2739 0.264709 30.0696 0.352936 30.821 0.45636C32.3225 0.676941 33.7814 0.956879 35.1962 1.28088C36.6262 1.63535 38.0546 2.0415 39.4694 2.5192L39.4587 2.51614ZM30.8241 29.1989C31.355 28.4474 31.8889 27.6776 32.3712 26.885C32.5376 26.5862 32.8107 26.361 33.1357 26.2544C33.4608 26.1478 33.8141 26.1677 34.1252 26.31C36.6854 27.5338 39.0095 29.1997 40.9906 31.2313C41.2224 31.4449 41.3715 31.7334 41.4119 32.0461C41.4521 32.3587 41.3812 32.6756 41.2112 32.9412C40.799 33.5892 40.3427 34.2661 39.8862 34.9294C39.4298 35.5927 38.9277 36.2408 38.4425 36.8599C38.088 37.3163 37.7047 37.7878 37.2925 38.2594C36.9395 38.6717 36.541 39.1281 36.0999 39.6149C35.4807 40.2933 34.8828 40.911 34.2743 41.5149L34.259 41.5149C33.6704 42.1052 33.0421 42.6802 32.3879 43.2537C32.1949 43.4417 31.9501 43.5675 31.6849 43.615C31.4197 43.6624 31.1464 43.6293 30.9001 43.5199C28.9609 42.6297 27.0938 41.5901 25.3157 40.4105C25.5514 40.234 25.7872 40.0576 26.0231 39.8659C26.5236 39.4673 27.0255 39.0703 27.4956 38.6489C28.6973 39.4126 29.9421 40.106 31.2241 40.7254C31.6212 40.3572 32.0045 39.9891 32.4031 39.6057C33.0208 38.9972 33.5958 38.4131 34.1267 37.8228C34.4796 37.4547 34.8478 37.0135 35.2616 36.5419C35.6145 36.1145 35.9827 35.6718 36.3372 35.2017C36.8224 34.6115 37.265 34.0075 37.6925 33.3884C37.9283 33.0841 38.1489 32.7403 38.3695 32.4163C37.7064 31.7805 36.9971 31.1948 36.2473 30.6638C35.5372 30.1489 34.7943 29.6809 34.0233 29.2628C33.6841 29.7785 33.3311 30.2805 32.9767 30.7657C32.359 31.6207 31.7247 32.4163 31.0767 33.183C30.7815 33.5208 30.5016 33.8311 30.2369 34.1262C30.1183 34.2783 29.9858 34.4061 29.8535 34.5522L29.8383 34.5674L29.8247 34.5826L29.8094 34.5963L29.7942 34.6115L29.7805 34.6267L29.7653 34.6419L29.7501 34.6556L29.7212 34.686L29.7212 34.6997C28.3143 36.1815 26.803 37.5602 25.1985 38.8253C22.7739 40.687 20.1438 42.2642 17.3595 43.526C17.1064 43.6395 16.8245 43.6721 16.5522 43.6193C16.2799 43.5664 16.0305 43.4308 15.8383 43.2309C15.1887 42.6711 14.5848 42.096 13.9808 41.521C13.3723 40.9323 12.7729 40.304 12.1554 39.6209C11.699 39.1342 11.3019 38.6778 10.9474 38.2655C10.5504 37.7939 10.167 37.3223 9.79895 36.866C9.31213 36.2331 8.84058 35.5988 8.3689 34.9355C7.89734 34.2722 7.45618 33.5953 7.04395 32.9472C6.71838 32.4315 6.38062 31.8824 6.04138 31.3119C5.73718 30.7521 5.42224 30.1922 5.12866 29.6385C4.74683 28.9311 4.39233 28.2086 4.0531 27.4875C3.71387 26.7664 3.42029 26.0423 3.11145 25.2908C2.55164 23.9217 2.06482 22.5221 1.63745 21.0921C1.20996 19.6622 0.857056 18.22 0.57251 16.7611C0.517212 16.4924 0.546997 16.2131 0.658081 15.9622C0.769043 15.7113 0.955566 15.5013 1.19165 15.3616C2.90698 14.1423 4.7146 13.0584 6.59814 12.1198C6.67114 12.8272 6.76099 13.5193 6.87805 14.2115C6.90698 14.4473 6.95105 14.6831 6.99524 14.9189C5.74475 15.5729 4.53479 16.3014 3.37158 17.1004C3.60742 18.2048 3.88733 19.2803 4.19617 20.3269C4.59473 21.6824 5.06628 23.0074 5.58203 24.2822C5.86194 24.9744 6.15552 25.6665 6.47961 26.3587C6.80359 27.0509 7.12915 27.7278 7.48206 28.3774C7.76196 28.9235 8.05713 29.4423 8.35217 29.9686C8.64587 30.4554 8.96069 30.9711 9.29382 31.5157C9.70764 32.1638 10.1199 32.7982 10.5474 33.3869C10.9749 33.9756 11.4312 34.6039 11.9028 35.2002C12.271 35.6703 12.6239 36.1129 12.9921 36.5404C13.3906 37.012 13.7739 37.4532 14.1117 37.8213C14.6578 38.4116 15.2313 39.0003 15.8505 39.6042C16.2338 39.9875 16.6323 40.3557 17.0142 40.7102C19.2311 39.6438 21.334 38.3553 23.2909 36.8644C26.1588 34.6896 28.6949 32.1089 30.8196 29.2034L30.8241 29.1989ZM47.0468 15.3555C47.282 15.4968 47.4686 15.7064 47.5817 15.9565C47.6947 16.2065 47.7289 16.4851 47.6796 16.755C47.3844 18.2139 47.0315 19.6576 46.604 21.086C46.1765 22.5145 45.6913 23.9156 45.1451 25.2847C45.0898 25.4213 45.0099 25.5466 44.9093 25.6544C44.6782 25.9224 44.3508 26.0886 43.9982 26.117C43.6454 26.1455 43.2957 26.0339 43.0245 25.8065C42.0291 24.9399 40.9753 24.1424 39.871 23.4196C38.7859 22.7098 37.6533 22.075 36.4816 21.5196C36.1743 21.381 35.9299 21.1324 35.7964 20.8228C35.6631 20.5132 35.6503 20.1648 35.7606 19.8462C36.2013 18.6064 36.5699 17.3422 36.865 16.0598C36.9973 15.5593 37.1007 15.0573 37.2042 14.5386C37.5435 14.6709 37.8676 14.8048 38.2068 14.9508C38.7073 15.1729 39.2076 15.4072 39.7081 15.6445C39.6351 15.9975 39.556 16.3367 39.4724 16.6759C39.2382 17.6632 38.9719 18.6536 38.6631 19.6226C39.5759 20.0942 40.4749 20.6236 41.3435 21.1834C42.0068 21.6261 42.67 22.0961 43.3044 22.5829C43.5691 21.8466 43.8201 21.0952 44.0406 20.33C44.3647 19.2834 44.6294 18.2002 44.8804 17.1034C42.947 15.7814 40.8892 14.6513 38.7361 13.7293C37.41 13.1562 36.0524 12.6589 34.6698 12.24C33.4065 11.8584 32.1224 11.5486 30.8241 11.312C29.9114 11.1508 28.9681 11.0184 28.0098 10.915C27.0514 10.8115 26.1097 10.7522 25.1666 10.7233L24.6372 10.7081L23.6058 10.7081L23.0901 10.7233C22.1469 10.7522 21.1885 10.8115 20.2454 10.915C19.3021 11.0184 18.3453 11.1508 17.4174 11.312C16.1349 11.5478 14.854 11.8718 13.5715 12.24C13.0847 12.3921 12.5995 12.5442 12.1127 12.7116C12.0686 12.4317 12.0245 12.167 11.9956 11.8871C11.9073 11.2542 11.8435 10.6351 11.804 10.0007C15.7791 8.68643 19.9393 8.01874 24.1261 8.02307C29.3048 8.03018 34.4331 9.04065 39.2275 10.9987C41.9926 12.1508 44.6173 13.614 47.0513 15.36L47.0468 15.3555ZM22.4999 27.0098C22.2793 26.7299 22.0875 26.4789 21.9111 26.2583C20.5092 24.339 19.3187 22.2738 18.3605 20.0988C18.2281 19.8051 18.0944 19.51 17.9772 19.2149C17.86 18.9198 17.7703 18.6703 17.673 18.3904C17.6307 18.2931 17.6011 18.1909 17.5847 18.0862C17.5532 17.9129 17.5566 17.7351 17.5947 17.5632C17.6327 17.3912 17.7046 17.2286 17.8062 17.0847C17.9076 16.9409 18.0367 16.8187 18.186 16.7253C18.3353 16.6318 18.5016 16.569 18.6754 16.5406C18.9553 16.4812 19.2838 16.4371 19.6185 16.3884L20.5754 16.2545C21.1656 16.1967 21.7544 16.1526 22.3584 16.1024C22.9623 16.0522 23.5753 16.0583 24.1276 16.0583C24.6798 16.0583 25.2761 16.072 25.9089 16.1024C26.5175 16.1465 27.1031 16.1907 27.6782 16.2545L28.635 16.3884C28.9894 16.4325 29.2983 16.4767 29.5934 16.5406C29.6686 16.5526 29.7424 16.572 29.814 16.5984C30.1473 16.7187 30.4197 16.966 30.5717 17.2863C30.7235 17.6066 30.7426 17.9739 30.6248 18.3082C30.5061 18.6125 30.389 18.9259 30.2704 19.221C30.1516 19.5161 30.0345 19.8112 29.9022 20.1049C29.4236 21.189 28.8873 22.2467 28.2958 23.2736C27.7014 24.3078 27.0472 25.3065 26.3364 26.2644C26.1154 26.5575 25.9242 26.808 25.7629 27.0159C25.5118 27.3201 25.3202 27.5757 25.1544 27.7522C25.1024 27.818 25.0427 27.8773 24.9764 27.9286C24.8427 28.0414 24.6877 28.1263 24.5208 28.1785C24.3538 28.2307 24.1781 28.2492 24.0039 28.2328C23.8297 28.2163 23.6605 28.1654 23.5062 28.0829C23.3519 28.0003 23.2157 27.8879 23.1053 27.7522C22.8848 27.5012 22.693 27.2654 22.4968 27.0159L22.4999 27.0098Z" fill="#8896AB" fill-opacity="1.000000" fill-rule="nonzero"/>
	</g>
	<path d="M167.312 16.9526C168.673 16.9526 169.886 17.2493 170.951 17.8428C172.033 18.4362 172.88 19.274 173.49 20.3562Q173.518 20.4044 173.544 20.4529Q174.407 22.0424 174.407 24.1003C174.407 25.5141 174.101 26.7708 173.49 27.8704C172.88 28.9526 172.033 29.7904 170.951 30.3839C169.886 30.9773 168.673 31.274 167.312 31.274C166.352 31.274 165.47 31.1082 164.667 30.7766C163.882 30.445 163.219 29.9475 162.677 29.2842L162.677 31.0908L159.562 31.0908L159.562 11.6639L162.834 11.6639L162.834 18.8115C163.393 18.2006 164.048 17.7381 164.798 17.4239C165.566 17.1097 166.404 16.9526 167.312 16.9526ZM61.9899 19.1519Q62.2595 18.7325 62.6073 18.393Q64.0828 16.9526 66.9645 16.9526L66.9645 20.0682C66.6852 20.0159 66.4321 19.9897 66.2052 19.9897Q64.6511 19.9897 63.651 20.734Q63.4211 20.9051 63.2205 21.1155Q63.1913 21.1454 63.1628 21.1761Q62.147 22.2721 62.147 24.3097L62.147 31.0908L58.8743 31.0908L58.8743 17.1097L61.9899 17.1097L61.9899 19.1519ZM82.7562 24.1788C82.7562 24.4057 82.7388 24.7286 82.7039 25.1475L71.7336 25.1475C71.9257 26.1773 72.4231 26.9977 73.226 27.6086Q73.3175 27.6748 73.4122 27.7361L73.4122 27.7361Q74.5909 28.4988 76.2631 28.4988Q77.7163 28.4988 78.8467 27.8946Q79.5084 27.541 80.0594 26.9803L81.8136 28.9962C81.1853 29.7468 80.3911 30.3141 79.431 30.6981C78.4711 31.0821 77.3889 31.274 76.1846 31.274C74.6486 31.274 73.2958 30.9686 72.1263 30.3577C70.9569 29.7468 70.0493 28.9002 69.4034 27.8181Q69.2285 27.512 69.0861 27.1915L69.0861 27.1914Q68.4609 25.7848 68.4609 24.1003Q68.4609 22.3794 69.1116 20.9559Q69.2332 20.6902 69.3773 20.4348C70.0056 19.3351 70.8696 18.4799 71.9692 17.869Q72.2109 17.7347 72.4615 17.6201L72.4617 17.6201Q73.9218 16.9526 75.6871 16.9526Q77.4757 16.9526 78.9229 17.6555L78.9232 17.6557Q79.1282 17.7553 79.3264 17.869Q80.0756 18.2798 80.6686 18.8524Q81.3605 19.5204 81.8398 20.4086C82.4507 21.4908 82.7562 22.7475 82.7562 24.1788ZM90.2198 31.274C89.0853 31.274 87.9769 31.1257 86.8948 30.829C85.8126 30.5323 84.9486 30.157 84.3027 29.7032L85.5594 27.2159C86.1879 27.6348 86.9384 27.9752 87.8112 28.237C88.7013 28.4813 89.574 28.6035 90.4293 28.6035Q92.7247 28.6035 93.2233 27.657Q93.3617 27.3943 93.3617 27.0588C93.3617 26.5701 93.1085 26.2297 92.6024 26.0377C92.1136 25.8457 91.3195 25.6624 90.2198 25.4879C89.0679 25.3133 88.1252 25.1126 87.3922 24.8857Q87.0127 24.7654 86.6659 24.5828Q86.0317 24.2491 85.5071 23.7075Q85.4689 23.6655 85.4326 23.6219L85.4318 23.621Q84.7217 22.7689 84.7217 21.325Q84.7217 20.3741 85.0984 19.6085Q85.5099 18.7721 86.3711 18.157Q88.0468 16.9526 90.8744 16.9526C91.8344 16.9526 92.7944 17.0661 93.7544 17.293Q95.1943 17.6071 96.1107 18.157L94.854 20.6443C93.6671 19.9461 92.3318 19.597 90.8481 19.597C89.8882 19.597 89.1552 19.7453 88.6489 20.0421C88.1602 20.3214 87.9159 20.6966 87.9159 21.1679C87.9159 21.6915 88.1776 22.0668 88.7013 22.2937C89.2424 22.5031 90.0714 22.7039 91.1886 22.8959C92.3057 23.0704 93.222 23.2711 93.9376 23.498C94.6533 23.725 95.2642 24.109 95.7704 24.6501C96.2941 25.1912 96.5558 25.9592 96.5558 26.9541C96.5558 28.2632 95.9885 29.3104 94.854 30.0959C93.7195 30.8813 92.1748 31.274 90.2198 31.274ZM112.518 24.1788C112.518 24.4057 112.5 24.7286 112.465 25.1475L101.495 25.1475C101.687 26.1773 102.184 26.9977 102.987 27.6086C103.808 28.2021 104.82 28.4988 106.024 28.4988C107.56 28.4988 108.826 27.9926 109.821 26.9803L111.575 28.9962C110.947 29.7468 110.152 30.3141 109.193 30.6981Q107.752 31.274 105.946 31.274C104.41 31.274 103.057 30.9686 101.888 30.3577C100.718 29.7468 99.8107 28.9002 99.1648 27.8181C98.5365 26.7184 98.2223 25.4792 98.2223 24.1003Q98.2223 22.3794 98.8729 20.9559L98.873 20.9558Q98.9945 20.6901 99.1387 20.4348C99.767 19.3351 100.631 18.4799 101.731 17.869C102.83 17.2581 104.07 16.9526 105.448 16.9526C106.81 16.9526 108.023 17.2581 109.088 17.869C110.17 18.4624 111.008 19.309 111.601 20.4086C112.212 21.4908 112.518 22.7475 112.518 24.1788ZM122.076 31.274C120.627 31.274 119.327 30.9686 118.175 30.3577C117.023 29.7468 116.124 28.9002 115.478 27.8181C114.832 26.7184 114.509 25.4792 114.509 24.1003C114.509 22.7213 114.832 21.4908 115.478 20.4086C116.124 19.3264 117.014 18.4799 118.148 17.869Q118.181 17.8519 118.213 17.8351Q118.222 17.8304 118.231 17.8257Q119.929 16.9526 122.076 16.9526C123.455 16.9526 124.659 17.2319 125.689 17.7904Q126.532 18.2402 127.149 18.9012Q127.681 19.4716 128.045 20.1992L125.532 21.6653C125.13 21.0195 124.624 20.5395 124.013 20.2253Q123.746 20.0762 123.463 19.9718L123.463 19.9716Q122.801 19.7279 122.05 19.7279Q120.906 19.7279 120.007 20.1969Q119.465 20.4795 119.012 20.9323C118.21 21.7177 117.808 22.7737 117.808 24.1003C117.808 25.4268 118.201 26.4915 118.986 27.2944C119.789 28.0799 120.81 28.4726 122.05 28.4726C122.765 28.4726 123.42 28.3155 124.013 28.0013C124.624 27.6697 125.13 27.181 125.532 26.5352L128.045 28.0013C127.504 29.0486 126.71 29.8602 125.663 30.4362C124.633 30.9948 123.437 31.274 122.076 31.274ZM151.811 19.1519Q152.081 18.7325 152.428 18.393Q153.904 16.9526 156.786 16.9526L156.786 20.0682C156.506 20.0159 156.253 19.9897 156.026 19.9897C154.752 19.9897 153.757 20.365 153.042 21.1155C152.326 21.8486 151.968 22.9133 151.968 24.3097L151.968 31.0908L148.695 31.0908L148.695 17.1097L151.811 17.1097L151.811 19.1519ZM144.41 17.1097L144.41 31.0908L141.295 31.0908L141.295 29.3104C140.771 29.9388 140.116 30.4275 139.331 30.7766C138.546 31.1082 137.699 31.274 136.791 31.274C134.924 31.274 133.449 30.7592 132.367 29.7293C131.302 28.6821 130.77 27.1373 130.77 25.0952L130.77 17.1097L134.042 17.1097L134.042 24.6501C134.042 25.9068 134.322 26.8493 134.88 27.4777Q135.028 27.6343 135.196 27.7642Q136.013 28.3941 137.315 28.3941C138.484 28.3941 139.41 28.0363 140.09 27.3206Q140.122 27.2872 140.153 27.2529Q141.138 26.1589 141.138 24.1788L141.138 17.1097L144.41 17.1097ZM75.6871 19.5708Q74.6398 19.5708 73.802 19.9897Q73.3831 20.1992 73.0165 20.5133C72.3009 21.1242 71.8645 21.9446 71.7074 22.9744L79.6405 22.9744Q79.5057 21.9974 79.0134 21.2589Q78.7405 20.8495 78.3577 20.5133C77.642 19.885 76.7518 19.5708 75.6871 19.5708ZM105.448 19.5708Q104.401 19.5708 103.563 19.9897Q103.144 20.1992 102.778 20.5133C102.062 21.1242 101.626 21.9446 101.469 22.9744L109.402 22.9744C109.262 21.9621 108.835 21.1417 108.119 20.5133C107.403 19.885 106.513 19.5708 105.448 19.5708ZM166.945 28.4726C168.149 28.4726 169.136 28.0712 169.904 27.2682C170.689 26.4653 171.082 25.4093 171.082 24.1003C171.082 22.7911 170.689 21.7352 169.904 20.9323C169.136 20.1293 168.149 19.7279 166.945 19.7279Q166.031 19.7279 165.259 20.0588Q165.036 20.1544 164.824 20.2777C164.196 20.6268 163.698 21.133 163.332 21.7962C162.965 22.4595 162.782 23.2275 162.782 24.1003C162.782 24.973 162.965 25.741 163.332 26.4042C163.698 27.0675 164.196 27.5824 164.824 27.949C165.453 28.2981 166.16 28.4726 166.945 28.4726Z" fill="#8896AB" fill-opacity="1.000000" fill-rule="evenodd"/>
</svg>
