<svg width="185.454590" height="43.636353" viewBox="0 0 185.455 43.6364" fill="none" xmlns="http://www.w3.org/2000/svg" xmlns:xlink="http://www.w3.org/1999/xlink">
	<desc>
			Created with Pixso.
	</desc>
	<defs>
		<clipPath id="clip15_5633">
			<rect width="34.354980" height="43.082253" transform="translate(0.277056 0.277056)" fill="white" fill-opacity="0"/>
		</clipPath>
	</defs>
	<rect width="185.454544" height="43.636364" fill="#FFFFFF" fill-opacity="0"/>
	<rect width="34.354980" height="43.082253" transform="translate(0.277056 0.277056)" fill="#FFFFFF" fill-opacity="0"/>
	<g clip-path="url(#clip15_5633)">
		<path d="M4.48853 40.8485L8.31494 38.6546L9.85132 37.773L11.3596 36.9034L13.7262 35.5472L17.4846 33.4012L21.2471 35.5472L23.6097 36.9034L25.1178 37.773L26.6582 38.6546L30.4045 40.8166L31.5437 41.4628L32.6548 42.097L34.9091 43.3894L34.9091 22.623L30.4045 20.0342L30.4045 35.6748L27.3561 33.9197L22.8635 31.3509L21.1506 30.3536L19.739 29.5558L19.739 3.76736L15.2343 3.76736L15.2343 30.1701L12.1056 31.9691L7.61719 34.558L4.48853 36.341L4.48853 20.0661L-0.00012207 22.639L-0.00012207 43.4213L2.23816 42.1289L3.36133 41.4947L4.48853 40.8485ZM27.3522 30.3376L27.3522 -0.891724L22.8595 -0.891724L22.8595 27.7688L27.3522 30.3376ZM12.1097 28.3671L12.1097 8.42249L7.62109 8.42249L7.62109 30.956L12.1097 28.3671Z" fill="#8896AB" fill-opacity="1.000000" fill-rule="evenodd"/>
	</g>
	<path d="M167.041 18.716C166.511 14.3182 163.182 11.7893 158.775 11.7893C153.745 11.7893 149.906 15.341 149.906 21.5703C149.906 27.781 153.68 31.3513 158.775 31.3513C163.656 31.3513 166.604 28.1064 167.041 24.6013L162.969 24.5827C162.587 26.6189 160.988 27.7903 158.84 27.7903C155.949 27.7903 153.987 25.6426 153.987 21.5703C153.987 17.6096 155.921 15.3503 158.868 15.3503C161.072 15.3503 162.662 16.624 162.969 18.716L167.041 18.716ZM180.257 17.5259L184.116 17.5259C184.06 14.1323 181.271 11.7893 177.031 11.7893C172.869 11.7893 169.816 14.0812 169.816 17.5224L169.816 17.5538L169.816 17.5734C169.816 20.3691 171.795 21.9719 175.004 22.7418L177.078 23.2625C179.151 23.7645 180.304 24.3596 180.313 25.6426C180.304 27.0372 178.983 27.9856 176.938 27.9856C174.846 27.9856 173.34 27.0186 173.21 25.1126L169.314 25.1126C169.416 29.2314 172.364 31.3606 176.985 31.3606C181.633 31.3606 184.367 29.1385 184.376 25.6519C184.367 22.4814 181.977 20.7986 178.667 20.0548L176.957 19.6457C175.318 19.2683 173.944 18.663 173.944 17.3246C173.944 17.3112 173.944 17.2977 173.944 17.2841C173.944 16.0569 175.032 15.155 177.003 15.155C178.928 15.155 180.108 16.029 180.257 17.5259ZM53.9412 31.091L57.8647 31.091L61.4814 18.6416L61.6302 18.6416L65.2562 31.091L69.1798 31.091L74.6282 12.0497L70.2303 12.0497L67.0785 25.3079L66.9111 25.3079L63.4432 12.0497L59.6777 12.0497L56.2004 25.28L56.0424 25.28L52.8905 12.0497L48.4928 12.0497L53.9412 31.091ZM76.7828 31.091L89.6506 31.091L89.6506 27.7718L80.8086 27.7718L80.8086 23.2253L88.9532 23.2253L88.9532 19.906L80.8086 19.906L80.8086 15.3689L89.6134 15.3689L89.6134 12.0497L76.7828 12.0497L76.7828 31.091ZM92.8141 31.091L105.003 31.091L105.003 27.7718L96.8398 27.7718L96.8398 12.0497L92.8141 12.0497L92.8141 31.091ZM104.125 12.0497L111.07 24.3596L111.07 31.091L115.068 31.091L115.068 24.3596L122.013 12.0497L117.504 12.0497L113.162 20.2501L112.976 20.2501L108.634 12.0497L104.125 12.0497ZM124.688 15.3689L130.518 15.3689L130.518 31.091L134.497 31.091L134.497 15.3689L140.327 15.3689L140.327 12.0497L124.688 12.0497L124.688 15.3689ZM146.928 12.0497L142.902 12.0497L142.902 31.091L146.928 31.091L146.928 12.0497Z" fill="#8896AB" fill-opacity="1.000000" fill-rule="evenodd"/>
</svg>
