<svg width="20.000000" height="16.000000" viewBox="0 0 20 16" fill="none" xmlns="http://www.w3.org/2000/svg" xmlns:xlink="http://www.w3.org/1999/xlink">
	<desc>
			Created with Pixso.
	</desc>
	<defs/>
	<path id="Vector" d="M17 0L3 0C2.20435 0 1.44128 0.316071 0.878662 0.878677C0.31604 1.44129 0 2.20435 0 3L0 13C0 13.7956 0.31604 14.5587 0.878662 15.1213C1.44128 15.6839 2.20435 16 3 16L17 16C17.7957 16 18.5587 15.6839 19.1213 15.1213C19.684 14.5587 20 13.7956 20 13L20 3C20 2.20435 19.684 1.44129 19.1213 0.878677C18.5587 0.316071 17.7957 0 17 0ZM16.59 2L10.71 7.88C10.6171 7.97373 10.5065 8.04813 10.3845 8.09889C10.2627 8.14966 10.132 8.1758 10 8.1758C9.86804 8.1758 9.7373 8.14966 9.61548 8.09889C9.49353 8.04813 9.38293 7.97373 9.29004 7.88L3.41003 2L16.59 2ZM18 13C18 13.2652 17.8947 13.5196 17.7072 13.7071C17.5195 13.8946 17.2653 14 17 14L3 14C2.73474 14 2.48047 13.8946 2.29285 13.7071C2.10535 13.5196 2 13.2652 2 13L2 3.41L7.88 9.29C8.4425 9.8518 9.20496 10.1674 10 10.1674C10.795 10.1674 11.5575 9.8518 12.12 9.29L18 3.41L18 13Z" fill="#556987" fill-opacity="1.000000" fill-rule="nonzero"/>
</svg>
