<svg width="24.000000" height="24.000000" viewBox="0 0 24 24" fill="none" xmlns="http://www.w3.org/2000/svg" xmlns:xlink="http://www.w3.org/1999/xlink">
	<desc>
			Created with Pixso.
	</desc>
	<defs>
		<clipPath id="clip2454_14327">
			<rect id="messages / 24 / Outline" width="24.000000" height="24.000000" fill="white" fill-opacity="0"/>
		</clipPath>
	</defs>
	<rect id="messages / 24 / Outline" width="24.000000" height="24.000000" fill="#FFFFFF" fill-opacity="0"/>
	<g clip-path="url(#clip2454_14327)">
		<path id="Vector" d="M17 21.63L5 21.63C4.20435 21.63 3.44128 21.3139 2.87866 20.7513C2.31604 20.1887 2 19.4257 2 18.63L2 10.63C2 10.3648 1.89465 10.1104 1.70715 9.92291C1.51953 9.73535 1.26526 9.63 1 9.63C0.734741 9.63 0.480469 9.73535 0.292847 9.92291C0.105347 10.1104 0 10.3648 0 10.63L0 18.63C0 19.9561 0.526733 21.2278 1.46448 22.1655C2.4021 23.1032 3.67395 23.63 5 23.63L17 23.63C17.2653 23.63 17.5195 23.5247 17.7072 23.3371C17.8947 23.1496 18 22.8952 18 22.63C18 22.3648 17.8947 22.1104 17.7072 21.9229C17.5195 21.7354 17.2653 21.63 17 21.63ZM21 3.63L7 3.63C6.20435 3.63 5.44128 3.94611 4.87866 4.50867C4.31604 5.07129 4 5.83435 4 6.63L4 16.63C4 17.4257 4.31604 18.1887 4.87866 18.7513C5.44128 19.3139 6.20435 19.63 7 19.63L21 19.63C21.7957 19.63 22.5587 19.3139 23.1213 18.7513C23.684 18.1887 24 17.4257 24 16.63L24 6.63C24 5.83435 23.684 5.07129 23.1213 4.50867C22.5587 3.94611 21.7957 3.63 21 3.63ZM20.59 5.63L14.71 11.51C14.6171 11.6038 14.5065 11.6781 14.3845 11.7289C14.2627 11.7797 14.132 11.8058 14 11.8058C13.868 11.8058 13.7373 11.7797 13.6155 11.7289C13.4935 11.6781 13.3829 11.6038 13.29 11.51L7.41003 5.63L20.59 5.63ZM22 16.63C22 16.8952 21.8947 17.1496 21.7072 17.3371C21.5195 17.5247 21.2653 17.63 21 17.63L7 17.63C6.73474 17.63 6.48047 17.5247 6.29285 17.3371C6.10535 17.1496 6 16.8952 6 16.63L6 7L11.88 12.88C12.4425 13.4418 13.205 13.7574 14 13.7574C14.795 13.7574 15.5575 13.4418 16.12 12.88L22 7L22 16.63Z" fill="#FFFFFF" fill-opacity="1.000000" fill-rule="nonzero"/>
	</g>
</svg>
