<svg width="20.011597" height="10.011597" viewBox="0 0 20.0116 10.0116" fill="none" xmlns="http://www.w3.org/2000/svg" xmlns:xlink="http://www.w3.org/1999/xlink">
	<desc>
			Created with Pixso.
	</desc>
	<defs/>
	<path id="Vector" d="M19.7158 0.295776C19.6228 0.202087 19.5122 0.127686 19.3904 0.0769043C19.2686 0.026123 19.1378 0 19.0059 0C18.8738 0 18.743 0.026123 18.6212 0.0769043C18.4994 0.127686 18.3888 0.202087 18.2958 0.295776L12.0059 6.59583L7.71582 2.29578C7.6228 2.20209 7.51221 2.12769 7.39038 2.0769C7.26855 2.02612 7.13782 2 7.00586 2C6.87378 2 6.74304 2.02612 6.62122 2.0769C6.49939 2.12769 6.38879 2.20209 6.29578 2.29578L0.295776 8.29578C0.202026 8.38873 0.127686 8.49939 0.0769043 8.62122C0.026123 8.7431 0 8.87378 0 9.0058C0 9.13782 0.026123 9.26849 0.0769043 9.39038C0.127686 9.51221 0.202026 9.62286 0.295776 9.71582C0.388794 9.80951 0.49939 9.88391 0.621216 9.93469C0.743042 9.98547 0.873779 10.0116 1.00586 10.0116C1.13782 10.0116 1.26855 9.98547 1.39038 9.93469C1.51221 9.88391 1.6228 9.80951 1.71582 9.71582L7.00586 4.41577L11.2958 8.71582C11.3888 8.80951 11.4994 8.88391 11.6212 8.93469C11.743 8.98547 11.8738 9.0116 12.0059 9.0116C12.1378 9.0116 12.2686 8.98547 12.3904 8.93469C12.5122 8.88391 12.6228 8.80951 12.7158 8.71582L19.7158 1.71582C19.8096 1.62286 19.8839 1.51221 19.9347 1.39038C19.9855 1.26849 20.0116 1.13782 20.0116 1.0058C20.0116 0.873779 19.9855 0.743103 19.9347 0.621216C19.8839 0.49939 19.8096 0.388733 19.7158 0.295776Z" fill="#FFFFFF" fill-opacity="1.000000" fill-rule="nonzero"/>
</svg>
