<svg width="21.970093" height="17.000000" viewBox="0 0 21.9701 17" fill="none" xmlns="http://www.w3.org/2000/svg" xmlns:xlink="http://www.w3.org/1999/xlink">
	<desc>
			Created with Pixso.
	</desc>
	<defs/>
	<path id="Vector" d="M11.3 8.71997C11.8336 8.25812 12.2616 7.68689 12.5549 7.04504C12.8481 6.40314 13 5.70569 13 5C13 3.67389 12.4733 2.40216 11.5355 1.46448C10.5979 0.526794 9.32605 0 8 0C6.67395 0 5.4021 0.526794 4.46448 1.46448C3.52673 2.40216 3 3.67389 3 5C3 5.70569 3.15186 6.40314 3.44507 7.04504C3.7384 7.68689 4.16638 8.25812 4.69995 8.71997C3.30017 9.35388 2.11243 10.3775 1.27893 11.6685C0.445435 12.9595 0.00146484 14.4633 0 16C0 16.2652 0.105347 16.5196 0.292847 16.7071C0.480469 16.8947 0.734741 17 1 17C1.26526 17 1.51953 16.8947 1.70715 16.7071C1.89465 16.5196 2 16.2652 2 16C2 14.4087 2.63208 12.8826 3.75732 11.7574C4.88257 10.6321 6.40869 10 8 10C9.59131 10 11.1174 10.6321 12.2427 11.7574C13.3679 12.8826 14 14.4087 14 16C14 16.2652 14.1053 16.5196 14.2928 16.7071C14.4805 16.8947 14.7347 17 15 17C15.2653 17 15.5195 16.8947 15.7072 16.7071C15.8947 16.5196 16 16.2652 16 16C15.9985 14.4633 15.5544 12.9595 14.7211 11.6685C13.8876 10.3775 12.6998 9.35388 11.3 8.71997ZM8 8C7.40662 8 6.82666 7.82404 6.33325 7.49438C5.83997 7.16479 5.45544 6.69623 5.22839 6.14807C5.00134 5.59985 4.94189 4.99664 5.05762 4.41473C5.17334 3.83276 5.45911 3.29822 5.87866 2.87866C6.29822 2.45911 6.83276 2.1734 7.41467 2.05762C7.9967 1.94189 8.59985 2.00128 9.14807 2.22833C9.69629 2.45544 10.1648 2.83997 10.4944 3.33331C10.8241 3.82666 11 4.40668 11 5C11 5.79565 10.684 6.55872 10.1213 7.12134C9.55872 7.68396 8.79565 8 8 8ZM17.74 8.32001C18.38 7.5993 18.798 6.70905 18.9438 5.75635C19.0896 4.80365 18.9569 3.8291 18.5618 2.95001C18.1666 2.07092 17.5258 1.32477 16.7164 0.801453C15.9071 0.278076 14.9639 -0.000244141 14 0C13.7347 0 13.4805 0.105347 13.2928 0.292908C13.1053 0.480408 13 0.734802 13 1C13 1.2652 13.1053 1.51959 13.2928 1.70709C13.4805 1.89465 13.7347 2 14 2C14.7957 2 15.5587 2.3161 16.1213 2.87866C16.684 3.44128 17 4.20435 17 5C16.9985 5.52527 16.8593 6.04089 16.5961 6.49542C16.3329 6.94995 15.9548 7.32739 15.5 7.59003C15.3517 7.67554 15.2279 7.79767 15.1404 7.94476C15.0529 8.0918 15.0045 8.25891 15 8.42999C14.9958 8.59979 15.0349 8.76782 15.1136 8.91827C15.1924 9.06873 15.3081 9.19666 15.45 9.28998L15.84 9.54999L15.97 9.62C17.1754 10.1917 18.1923 11.096 18.901 12.2263C19.6096 13.3566 19.9806 14.666 19.97 16C19.97 16.2652 20.0753 16.5196 20.2629 16.7071C20.4504 16.8947 20.7048 17 20.97 17C21.2352 17 21.4896 16.8947 21.6771 16.7071C21.8646 16.5196 21.97 16.2652 21.97 16C21.9781 14.4655 21.5939 12.9542 20.8535 11.61C20.1132 10.2659 19.0414 9.1333 17.74 8.32001Z" fill="#FFFFFF" fill-opacity="1.000000" fill-rule="nonzero"/>
</svg>
