<svg width="20.000000" height="20.005859" viewBox="0 0 20 20.0059" fill="none" xmlns="http://www.w3.org/2000/svg" xmlns:xlink="http://www.w3.org/1999/xlink">
	<desc>
			Created with Pixso.
	</desc>
	<defs/>
	<path id="Vector" d="M3 16.0059L7.23999 16.0059C7.37158 16.0066 7.50208 15.9813 7.6239 15.9315C7.74573 15.8818 7.85657 15.8085 7.94995 15.7158L14.87 8.78577L17.71 6.00586C17.8037 5.91284 17.8782 5.80225 17.9288 5.68042C17.9796 5.55847 18.0059 5.42786 18.0059 5.29578C18.0059 5.16382 17.9796 5.03308 17.9288 4.91125C17.8782 4.78931 17.8037 4.67871 17.71 4.58582L13.47 0.295776C13.3771 0.202026 13.2665 0.127686 13.1445 0.0769043C13.0227 0.026123 12.892 0 12.76 0C12.6279 0 12.4973 0.026123 12.3754 0.0769043C12.2535 0.127686 12.1429 0.202026 12.05 0.295776L9.22998 3.12585L2.29004 10.0558C2.19727 10.1493 2.12402 10.26 2.07422 10.3818C2.02441 10.5038 1.99927 10.6342 2 10.7657L2 15.0059C2 15.271 2.10535 15.5254 2.29285 15.7129C2.48047 15.9004 2.73474 16.0059 3 16.0059ZM12.76 2.41577L15.59 5.24585L14.17 6.66577L11.34 3.83582L12.76 2.41577ZM4 11.1758L9.93005 5.24585L12.76 8.07581L6.82996 14.0059L4 14.0059L4 11.1758ZM19 18.0059L1 18.0059C0.734741 18.0059 0.480469 18.1112 0.292847 18.2987C0.105347 18.4862 0 18.7406 0 19.0059C0 19.271 0.105347 19.5254 0.292847 19.7129C0.480469 19.9004 0.734741 20.0059 1 20.0059L19 20.0059C19.2653 20.0059 19.5195 19.9004 19.7072 19.7129C19.8947 19.5254 20 19.271 20 19.0059C20 18.7406 19.8947 18.4862 19.7072 18.2987C19.5195 18.1112 19.2653 18.0059 19 18.0059Z" fill="#FFFFFF" fill-opacity="1.000000" fill-rule="nonzero"/>
</svg>
