<svg width="20.000000" height="20.000000" viewBox="0 0 20 20" fill="none" xmlns="http://www.w3.org/2000/svg" xmlns:xlink="http://www.w3.org/1999/xlink">
	<desc>
			Created with Pixso.
	</desc>
	<defs/>
	<path id="Vector" d="M8 11L1 11C0.734741 11 0.480469 11.1053 0.292847 11.2928C0.105347 11.4805 0 11.7347 0 12L0 19C0 19.2653 0.105347 19.5195 0.292847 19.7072C0.480469 19.8947 0.734741 20 1 20L8 20C8.26526 20 8.51953 19.8947 8.70715 19.7072C8.89465 19.5195 9 19.2653 9 19L9 12C9 11.7347 8.89465 11.4805 8.70715 11.2928C8.51953 11.1053 8.26526 11 8 11ZM7 18L2 18L2 13L7 13L7 18ZM19 0L12 0C11.7347 0 11.4805 0.105347 11.2928 0.292847C11.1053 0.480469 11 0.734741 11 1L11 8C11 8.26526 11.1053 8.51953 11.2928 8.70715C11.4805 8.89465 11.7347 9 12 9L19 9C19.2653 9 19.5195 8.89465 19.7072 8.70715C19.8947 8.51953 20 8.26526 20 8L20 1C20 0.734741 19.8947 0.480469 19.7072 0.292847C19.5195 0.105347 19.2653 0 19 0ZM18 7L13 7L13 2L18 2L18 7ZM19 11L12 11C11.7347 11 11.4805 11.1053 11.2928 11.2928C11.1053 11.4805 11 11.7347 11 12L11 19C11 19.2653 11.1053 19.5195 11.2928 19.7072C11.4805 19.8947 11.7347 20 12 20L19 20C19.2653 20 19.5195 19.8947 19.7072 19.7072C19.8947 19.5195 20 19.2653 20 19L20 12C20 11.7347 19.8947 11.4805 19.7072 11.2928C19.5195 11.1053 19.2653 11 19 11ZM18 18L13 18L13 13L18 13L18 18ZM8 0L1 0C0.734741 0 0.480469 0.105347 0.292847 0.292847C0.105347 0.480469 0 0.734741 0 1L0 8C0 8.26526 0.105347 8.51953 0.292847 8.70715C0.480469 8.89465 0.734741 9 1 9L8 9C8.26526 9 8.51953 8.89465 8.70715 8.70715C8.89465 8.51953 9 8.26526 9 8L9 1C9 0.734741 8.89465 0.480469 8.70715 0.292847C8.51953 0.105347 8.26526 0 8 0ZM7 7L2 7L2 2L7 2L7 7Z" fill="#FFFFFF" fill-opacity="1.000000" fill-rule="nonzero"/>
</svg>
