<svg width="20.000000" height="20.000000" viewBox="0 0 20 20" fill="none" xmlns="http://www.w3.org/2000/svg" xmlns:xlink="http://www.w3.org/1999/xlink">
	<desc>
			Created with Pixso.
	</desc>
	<defs/>
	<path id="Vector" d="M19.3199 7.55005L17.4301 6.92004L18.3199 5.14001C18.4103 4.95374 18.4404 4.74402 18.4064 4.53979C18.3723 4.33557 18.2758 4.14697 18.13 4L16 1.87C15.8523 1.72205 15.6619 1.62427 15.4556 1.59009C15.2493 1.55603 15.0375 1.58752 14.85 1.68005L13.0699 2.56995L12.4399 0.680054C12.3734 0.483032 12.2472 0.311646 12.0787 0.189697C11.9103 0.0678711 11.7079 0.00158691 11.5 0L8.5 0C8.29041 -0.000488281 8.08582 0.0648193 7.91541 0.18689C7.74487 0.308838 7.61707 0.481323 7.55005 0.680054L6.92004 2.56995L5.14001 1.68005C4.95374 1.58984 4.74402 1.55957 4.53979 1.59363C4.33557 1.62769 4.14697 1.72424 4 1.87L1.87 4C1.72205 4.14783 1.62427 4.33813 1.59009 4.54443C1.55603 4.75073 1.58752 4.96252 1.68005 5.15002L2.56995 6.93005L0.680054 7.56006C0.483032 7.62659 0.311646 7.75281 0.189697 7.92126C0.0678711 8.08984 0.00158691 8.29211 0 8.5L0 11.5C-0.000488281 11.7096 0.0648193 11.9142 0.18689 12.0846C0.308838 12.2551 0.481323 12.3829 0.680054 12.45L2.56995 13.08L1.68005 14.86C1.58984 15.0463 1.55957 15.256 1.59363 15.4602C1.62769 15.6644 1.72424 15.853 1.87 16L4 18.13C4.14783 18.278 4.33813 18.3759 4.54443 18.4099C4.75073 18.444 4.96252 18.4125 5.15002 18.3199L6.93005 17.4301L7.56006 19.3199C7.62708 19.5187 7.75488 19.6912 7.92542 19.8131C8.09583 19.9352 8.30042 20.0005 8.51001 20L11.51 20C11.7196 20.0005 11.9242 19.9352 12.0946 19.8131C12.2651 19.6912 12.3929 19.5187 12.46 19.3199L13.09 17.4301L14.87 18.3199C15.0552 18.408 15.2628 18.4369 15.465 18.403C15.667 18.3689 15.8538 18.2737 16 18.13L18.13 16C18.278 15.8523 18.3759 15.6619 18.4099 15.4556C18.444 15.2493 18.4125 15.0375 18.3199 14.85L17.4301 13.0699L19.3199 12.4399C19.517 12.3734 19.6884 12.2472 19.8103 12.0787C19.9321 11.9103 19.9984 11.7079 20 11.5L20 8.5C20.0005 8.29041 19.9352 8.08582 19.8131 7.91541C19.6912 7.74487 19.5187 7.61707 19.3199 7.55005ZM18 10.78L16.8 11.1801C16.524 11.2695 16.2709 11.418 16.0581 11.6151C15.8452 11.8123 15.6779 12.0533 15.5675 12.3215C15.4572 12.5898 15.4064 12.8789 15.4189 13.1688C15.4315 13.4586 15.507 13.7422 15.64 14L16.21 15.14L15.11 16.24L14 15.64C13.7435 15.5122 13.4626 15.441 13.1763 15.4313C12.89 15.4215 12.6049 15.4734 12.3403 15.5834C12.0758 15.6934 11.8379 15.8589 11.6429 16.0688C11.4479 16.2787 11.3003 16.5281 11.21 16.8L10.8101 18L9.21997 18L8.81995 16.8C8.73047 16.524 8.58203 16.2709 8.38489 16.0581C8.18774 15.8452 7.94666 15.6779 7.67847 15.5675C7.41016 15.4572 7.12109 15.4064 6.83118 15.4189C6.54138 15.4315 6.25781 15.507 6 15.64L4.85999 16.21L3.76001 15.11L4.35999 14C4.49304 13.7422 4.56848 13.4586 4.58105 13.1688C4.59363 12.8789 4.54285 12.5898 4.4325 12.3215C4.32214 12.0533 4.15479 11.8123 3.94189 11.6151C3.72913 11.418 3.47595 11.2695 3.19995 11.1801L2 10.78L2 9.21997L3.19995 8.81995C3.47595 8.73047 3.72913 8.58203 3.94189 8.38489C4.15479 8.18774 4.32214 7.94666 4.4325 7.67847C4.54285 7.41016 4.59363 7.12109 4.58105 6.83118C4.56848 6.54138 4.49304 6.25781 4.35999 6L3.79004 4.89001L4.89001 3.79004L6 4.35999C6.25781 4.49304 6.54138 4.56848 6.83118 4.58105C7.12109 4.59363 7.41016 4.54285 7.67847 4.4325C7.94666 4.32214 8.18774 4.15479 8.38489 3.94189C8.58203 3.72913 8.73047 3.47595 8.81995 3.19995L9.21997 2L10.78 2L11.1801 3.19995C11.2695 3.47595 11.418 3.72913 11.6151 3.94189C11.8123 4.15479 12.0533 4.32214 12.3215 4.4325C12.5898 4.54285 12.8789 4.59363 13.1688 4.58105C13.4586 4.56848 13.7422 4.49304 14 4.35999L15.14 3.79004L16.24 4.89001L15.64 6C15.5122 6.25647 15.441 6.53735 15.4313 6.82373C15.4215 7.10999 15.4734 7.39514 15.5834 7.65967C15.6934 7.92419 15.8589 8.16211 16.0688 8.35706C16.2787 8.55212 16.5281 8.69971 16.8 8.79004L18 9.18994L18 10.78ZM10 6C9.20886 6 8.43555 6.23462 7.77771 6.67407C7.11987 7.11365 6.60718 7.7384 6.30444 8.46924C6.00171 9.2002 5.92249 10.0044 6.0769 10.7804C6.2312 11.5563 6.61218 12.269 7.17163 12.8284C7.73096 13.3878 8.44373 13.7688 9.2196 13.9231C9.99561 14.0775 10.7998 13.9983 11.5308 13.6956C12.2616 13.3928 12.8864 12.8801 13.3259 12.2223C13.7654 11.5645 14 10.7911 14 10C14 8.93909 13.5786 7.92175 12.8284 7.17163C12.0782 6.42139 11.0609 6 10 6ZM10 12C9.60449 12 9.21777 11.8827 8.88892 11.663C8.55994 11.4432 8.30359 11.1309 8.15222 10.7654C8.00085 10.3999 7.9613 9.9978 8.03845 9.60986C8.1156 9.2218 8.30603 8.86548 8.58582 8.58582C8.86548 8.30603 9.2218 8.1156 9.60986 8.03845C9.9978 7.9613 10.3999 8.00085 10.7654 8.15222C11.1309 8.30359 11.4432 8.55994 11.663 8.88892C11.8827 9.21777 12 9.60449 12 10C12 10.5304 11.7893 11.0392 11.4142 11.4142C11.0392 11.7893 10.5304 12 10 12Z" fill="#FFFFFF" fill-opacity="1.000000" fill-rule="nonzero"/>
</svg>
