<svg width="1488.000000" height="720.000000" viewBox="0 0 1488 720" fill="none" xmlns="http://www.w3.org/2000/svg" xmlns:xlink="http://www.w3.org/1999/xlink">
	<desc>
			Created with Pixso.
	</desc>
	<defs/>
	<line id="Line 1" x1="24.500061" y1="0.000000" x2="24.500000" y2="720.000000" stroke="#2C3544" stroke-opacity="1.000000" stroke-width="1.000000"/>
	<line id="Line 63" x1="1488.000000" y1="24.500000" x2="0.000000" y2="24.500000" stroke="#2C3544" stroke-opacity="1.000000" stroke-width="1.000000"/>
	<line id="Line 64" x1="1488.000000" y1="48.500000" x2="0.000000" y2="48.500000" stroke="#2C3544" stroke-opacity="1.000000" stroke-width="1.000000"/>
	<line id="Line 65" x1="1488.000000" y1="72.500000" x2="0.000000" y2="72.500000" stroke="#2C3544" stroke-opacity="1.000000" stroke-width="1.000000"/>
	<line id="Line 66" x1="1488.000000" y1="96.500000" x2="0.000000" y2="96.500000" stroke="#2C3544" stroke-opacity="1.000000" stroke-width="1.000000"/>
	<line id="Line 67" x1="1488.000000" y1="120.500000" x2="0.000000" y2="120.500000" stroke="#2C3544" stroke-opacity="1.000000" stroke-width="1.000000"/>
	<line id="Line 68" x1="1488.000000" y1="144.500000" x2="0.000000" y2="144.500000" stroke="#2C3544" stroke-opacity="1.000000" stroke-width="1.000000"/>
	<line id="Line 69" x1="1488.000000" y1="168.500000" x2="0.000000" y2="168.500000" stroke="#2C3544" stroke-opacity="1.000000" stroke-width="1.000000"/>
	<line id="Line 70" x1="1488.000000" y1="192.500000" x2="0.000000" y2="192.500000" stroke="#2C3544" stroke-opacity="1.000000" stroke-width="1.000000"/>
	<line id="Line 71" x1="1488.000000" y1="216.500000" x2="0.000000" y2="216.500000" stroke="#2C3544" stroke-opacity="1.000000" stroke-width="1.000000"/>
	<line id="Line 72" x1="1488.000000" y1="240.500000" x2="0.000000" y2="240.500000" stroke="#2C3544" stroke-opacity="1.000000" stroke-width="1.000000"/>
	<line id="Line 73" x1="1488.000000" y1="264.500000" x2="0.000000" y2="264.500000" stroke="#2C3544" stroke-opacity="1.000000" stroke-width="1.000000"/>
	<line id="Line 74" x1="1488.000000" y1="288.500000" x2="0.000000" y2="288.500000" stroke="#2C3544" stroke-opacity="1.000000" stroke-width="1.000000"/>
	<line id="Line 75" x1="1488.000000" y1="312.500000" x2="0.000000" y2="312.500000" stroke="#2C3544" stroke-opacity="1.000000" stroke-width="1.000000"/>
	<line id="Line 76" x1="1488.000000" y1="336.500000" x2="0.000000" y2="336.500000" stroke="#2C3544" stroke-opacity="1.000000" stroke-width="1.000000"/>
	<line id="Line 77" x1="1488.000000" y1="360.500000" x2="0.000000" y2="360.500000" stroke="#2C3544" stroke-opacity="1.000000" stroke-width="1.000000"/>
	<line id="Line 78" x1="1488.000000" y1="384.500000" x2="0.000000" y2="384.500000" stroke="#2C3544" stroke-opacity="1.000000" stroke-width="1.000000"/>
	<line id="Line 79" x1="1488.000000" y1="408.500000" x2="0.000000" y2="408.500000" stroke="#2C3544" stroke-opacity="1.000000" stroke-width="1.000000"/>
	<line id="Line 80" x1="1488.000000" y1="432.500000" x2="0.000000" y2="432.500000" stroke="#2C3544" stroke-opacity="1.000000" stroke-width="1.000000"/>
	<line id="Line 81" x1="1488.000000" y1="456.500000" x2="0.000000" y2="456.500000" stroke="#2C3544" stroke-opacity="1.000000" stroke-width="1.000000"/>
	<line id="Line 82" x1="1488.000000" y1="480.500000" x2="0.000000" y2="480.500000" stroke="#2C3544" stroke-opacity="1.000000" stroke-width="1.000000"/>
	<line id="Line 83" x1="1488.000000" y1="504.500000" x2="0.000000" y2="504.500000" stroke="#2C3544" stroke-opacity="1.000000" stroke-width="1.000000"/>
	<line id="Line 84" x1="1488.000000" y1="528.500000" x2="0.000000" y2="528.500000" stroke="#2C3544" stroke-opacity="1.000000" stroke-width="1.000000"/>
	<line id="Line 85" x1="1488.000000" y1="552.500000" x2="0.000000" y2="552.500000" stroke="#2C3544" stroke-opacity="1.000000" stroke-width="1.000000"/>
	<line id="Line 86" x1="1488.000000" y1="576.500000" x2="0.000000" y2="576.500000" stroke="#2C3544" stroke-opacity="1.000000" stroke-width="1.000000"/>
	<line id="Line 87" x1="1488.000000" y1="600.500000" x2="0.000000" y2="600.500000" stroke="#2C3544" stroke-opacity="1.000000" stroke-width="1.000000"/>
	<line id="Line 88" x1="1488.000000" y1="624.500000" x2="0.000000" y2="624.500000" stroke="#2C3544" stroke-opacity="1.000000" stroke-width="1.000000"/>
	<line id="Line 89" x1="1488.000000" y1="648.500000" x2="0.000000" y2="648.500000" stroke="#2C3544" stroke-opacity="1.000000" stroke-width="1.000000"/>
	<line id="Line 90" x1="1488.000000" y1="672.500000" x2="0.000000" y2="672.500000" stroke="#2C3544" stroke-opacity="1.000000" stroke-width="1.000000"/>
	<line id="Line 91" x1="1488.000000" y1="696.500000" x2="0.000000" y2="696.500000" stroke="#2C3544" stroke-opacity="1.000000" stroke-width="1.000000"/>
	<line id="Line 2" x1="48.500061" y1="0.000000" x2="48.500000" y2="720.000000" stroke="#2C3544" stroke-opacity="1.000000" stroke-width="1.000000"/>
	<line id="Line 3" x1="48.500061" y1="0.000000" x2="48.500000" y2="720.000000" stroke="#2C3544" stroke-opacity="1.000000" stroke-width="1.000000"/>
	<line id="Line 4" x1="72.500061" y1="0.000000" x2="72.500000" y2="720.000000" stroke="#2C3544" stroke-opacity="1.000000" stroke-width="1.000000"/>
	<line id="Line 5" x1="96.500061" y1="0.000000" x2="96.500000" y2="720.000000" stroke="#2C3544" stroke-opacity="1.000000" stroke-width="1.000000"/>
	<line id="Line 6" x1="120.500061" y1="0.000000" x2="120.500000" y2="720.000000" stroke="#2C3544" stroke-opacity="1.000000" stroke-width="1.000000"/>
	<line id="Line 7" x1="144.500061" y1="0.000000" x2="144.500000" y2="720.000000" stroke="#2C3544" stroke-opacity="1.000000" stroke-width="1.000000"/>
	<line id="Line 8" x1="168.500061" y1="0.000000" x2="168.500000" y2="720.000000" stroke="#2C3544" stroke-opacity="1.000000" stroke-width="1.000000"/>
	<line id="Line 9" x1="192.500061" y1="0.000000" x2="192.500000" y2="720.000000" stroke="#2C3544" stroke-opacity="1.000000" stroke-width="1.000000"/>
	<line id="Line 10" x1="216.500061" y1="0.000000" x2="216.500000" y2="720.000000" stroke="#2C3544" stroke-opacity="1.000000" stroke-width="1.000000"/>
	<line id="Line 11" x1="240.500000" y1="0.000000" x2="240.500000" y2="720.000000" stroke="#2C3544" stroke-opacity="1.000000" stroke-width="1.000000"/>
	<line id="Line 12" x1="264.500000" y1="0.000000" x2="264.500000" y2="720.000000" stroke="#2C3544" stroke-opacity="1.000000" stroke-width="1.000000"/>
	<line id="Line 13" x1="288.500000" y1="0.000000" x2="288.500000" y2="720.000000" stroke="#2C3544" stroke-opacity="1.000000" stroke-width="1.000000"/>
	<line id="Line 14" x1="312.500000" y1="0.000000" x2="312.500000" y2="720.000000" stroke="#2C3544" stroke-opacity="1.000000" stroke-width="1.000000"/>
	<line id="Line 15" x1="336.500000" y1="0.000000" x2="336.500000" y2="720.000000" stroke="#2C3544" stroke-opacity="1.000000" stroke-width="1.000000"/>
	<line id="Line 16" x1="360.500000" y1="0.000000" x2="360.500000" y2="720.000000" stroke="#2C3544" stroke-opacity="1.000000" stroke-width="1.000000"/>
	<line id="Line 17" x1="384.500000" y1="0.000000" x2="384.500000" y2="720.000000" stroke="#2C3544" stroke-opacity="1.000000" stroke-width="1.000000"/>
	<line id="Line 18" x1="408.500000" y1="0.000000" x2="408.500000" y2="720.000000" stroke="#2C3544" stroke-opacity="1.000000" stroke-width="1.000000"/>
	<line id="Line 19" x1="432.500000" y1="0.000000" x2="432.500000" y2="720.000000" stroke="#2C3544" stroke-opacity="1.000000" stroke-width="1.000000"/>
	<line id="Line 20" x1="456.500000" y1="0.000000" x2="456.500000" y2="720.000000" stroke="#2C3544" stroke-opacity="1.000000" stroke-width="1.000000"/>
	<line id="Line 21" x1="480.500000" y1="0.000000" x2="480.500000" y2="720.000000" stroke="#2C3544" stroke-opacity="1.000000" stroke-width="1.000000"/>
	<line id="Line 22" x1="504.500000" y1="0.000000" x2="504.500000" y2="720.000000" stroke="#2C3544" stroke-opacity="1.000000" stroke-width="1.000000"/>
	<line id="Line 23" x1="528.500000" y1="0.000000" x2="528.500000" y2="720.000000" stroke="#2C3544" stroke-opacity="1.000000" stroke-width="1.000000"/>
	<line id="Line 24" x1="552.500000" y1="0.000000" x2="552.500000" y2="720.000000" stroke="#2C3544" stroke-opacity="1.000000" stroke-width="1.000000"/>
	<line id="Line 25" x1="576.500000" y1="0.000000" x2="576.500000" y2="720.000000" stroke="#2C3544" stroke-opacity="1.000000" stroke-width="1.000000"/>
	<line id="Line 26" x1="600.500000" y1="0.000000" x2="600.500000" y2="720.000000" stroke="#2C3544" stroke-opacity="1.000000" stroke-width="1.000000"/>
	<line id="Line 27" x1="624.500000" y1="0.000000" x2="624.500000" y2="720.000000" stroke="#2C3544" stroke-opacity="1.000000" stroke-width="1.000000"/>
	<line id="Line 28" x1="648.500000" y1="0.000000" x2="648.500000" y2="720.000000" stroke="#2C3544" stroke-opacity="1.000000" stroke-width="1.000000"/>
	<line id="Line 29" x1="672.500000" y1="0.000000" x2="672.500000" y2="720.000000" stroke="#2C3544" stroke-opacity="1.000000" stroke-width="1.000000"/>
	<line id="Line 30" x1="696.500000" y1="0.000000" x2="696.500000" y2="720.000000" stroke="#2C3544" stroke-opacity="1.000000" stroke-width="1.000000"/>
	<line id="Line 31" x1="720.500000" y1="0.000000" x2="720.500000" y2="720.000000" stroke="#2C3544" stroke-opacity="1.000000" stroke-width="1.000000"/>
	<line id="Line 32" x1="744.500000" y1="0.000000" x2="744.500000" y2="720.000000" stroke="#2C3544" stroke-opacity="1.000000" stroke-width="1.000000"/>
	<line id="Line 33" x1="768.500000" y1="0.000000" x2="768.500000" y2="720.000000" stroke="#2C3544" stroke-opacity="1.000000" stroke-width="1.000000"/>
	<line id="Line 34" x1="792.500000" y1="0.000000" x2="792.500000" y2="720.000000" stroke="#2C3544" stroke-opacity="1.000000" stroke-width="1.000000"/>
	<line id="Line 35" x1="816.500000" y1="0.000000" x2="816.500000" y2="720.000000" stroke="#2C3544" stroke-opacity="1.000000" stroke-width="1.000000"/>
	<line id="Line 36" x1="840.500000" y1="0.000000" x2="840.500000" y2="720.000000" stroke="#2C3544" stroke-opacity="1.000000" stroke-width="1.000000"/>
	<line id="Line 37" x1="864.500000" y1="0.000000" x2="864.500000" y2="720.000000" stroke="#2C3544" stroke-opacity="1.000000" stroke-width="1.000000"/>
	<line id="Line 38" x1="888.500000" y1="0.000000" x2="888.500000" y2="720.000000" stroke="#2C3544" stroke-opacity="1.000000" stroke-width="1.000000"/>
	<line id="Line 39" x1="912.500000" y1="0.000000" x2="912.500000" y2="720.000000" stroke="#2C3544" stroke-opacity="1.000000" stroke-width="1.000000"/>
	<line id="Line 40" x1="936.500000" y1="0.000000" x2="936.500000" y2="720.000000" stroke="#2C3544" stroke-opacity="1.000000" stroke-width="1.000000"/>
	<line id="Line 41" x1="960.500000" y1="0.000000" x2="960.500000" y2="720.000000" stroke="#2C3544" stroke-opacity="1.000000" stroke-width="1.000000"/>
	<line id="Line 42" x1="984.500000" y1="0.000000" x2="984.500000" y2="720.000000" stroke="#2C3544" stroke-opacity="1.000000" stroke-width="1.000000"/>
	<line id="Line 43" x1="1008.500000" y1="0.000000" x2="1008.500000" y2="720.000000" stroke="#2C3544" stroke-opacity="1.000000" stroke-width="1.000000"/>
	<line id="Line 44" x1="1032.500000" y1="0.000000" x2="1032.500000" y2="720.000000" stroke="#2C3544" stroke-opacity="1.000000" stroke-width="1.000000"/>
	<line id="Line 45" x1="1056.500000" y1="0.000000" x2="1056.500000" y2="720.000000" stroke="#2C3544" stroke-opacity="1.000000" stroke-width="1.000000"/>
	<line id="Line 46" x1="1080.500000" y1="0.000000" x2="1080.500000" y2="720.000000" stroke="#2C3544" stroke-opacity="1.000000" stroke-width="1.000000"/>
	<line id="Line 47" x1="1104.500000" y1="0.000000" x2="1104.500000" y2="720.000000" stroke="#2C3544" stroke-opacity="1.000000" stroke-width="1.000000"/>
	<line id="Line 48" x1="1128.500000" y1="0.000000" x2="1128.500000" y2="720.000000" stroke="#2C3544" stroke-opacity="1.000000" stroke-width="1.000000"/>
	<line id="Line 49" x1="1152.500000" y1="0.000000" x2="1152.500000" y2="720.000000" stroke="#2C3544" stroke-opacity="1.000000" stroke-width="1.000000"/>
	<line id="Line 50" x1="1176.500000" y1="0.000000" x2="1176.500000" y2="720.000000" stroke="#2C3544" stroke-opacity="1.000000" stroke-width="1.000000"/>
	<line id="Line 51" x1="1200.500000" y1="0.000000" x2="1200.500000" y2="720.000000" stroke="#2C3544" stroke-opacity="1.000000" stroke-width="1.000000"/>
	<line id="Line 52" x1="1224.500000" y1="0.000000" x2="1224.500000" y2="720.000000" stroke="#2C3544" stroke-opacity="1.000000" stroke-width="1.000000"/>
	<line id="Line 53" x1="1248.500000" y1="0.000000" x2="1248.500000" y2="720.000000" stroke="#2C3544" stroke-opacity="1.000000" stroke-width="1.000000"/>
	<line id="Line 54" x1="1272.500000" y1="0.000000" x2="1272.500000" y2="720.000000" stroke="#2C3544" stroke-opacity="1.000000" stroke-width="1.000000"/>
	<line id="Line 55" x1="1296.500000" y1="0.000000" x2="1296.500000" y2="720.000000" stroke="#2C3544" stroke-opacity="1.000000" stroke-width="1.000000"/>
	<line id="Line 56" x1="1320.500000" y1="0.000000" x2="1320.500000" y2="720.000000" stroke="#2C3544" stroke-opacity="1.000000" stroke-width="1.000000"/>
	<line id="Line 57" x1="1344.500000" y1="0.000000" x2="1344.500000" y2="720.000000" stroke="#2C3544" stroke-opacity="1.000000" stroke-width="1.000000"/>
	<line id="Line 58" x1="1368.500000" y1="0.000000" x2="1368.500000" y2="720.000000" stroke="#2C3544" stroke-opacity="1.000000" stroke-width="1.000000"/>
	<line id="Line 59" x1="1392.500000" y1="0.000000" x2="1392.500000" y2="720.000000" stroke="#2C3544" stroke-opacity="1.000000" stroke-width="1.000000"/>
	<line id="Line 60" x1="1416.500000" y1="0.000000" x2="1416.500000" y2="720.000000" stroke="#2C3544" stroke-opacity="1.000000" stroke-width="1.000000"/>
	<line id="Line 61" x1="1440.500000" y1="0.000000" x2="1440.500000" y2="720.000000" stroke="#2C3544" stroke-opacity="1.000000" stroke-width="1.000000"/>
	<line id="Line 62" x1="1464.500000" y1="0.000000" x2="1464.500000" y2="720.000000" stroke="#2C3544" stroke-opacity="1.000000" stroke-width="1.000000"/>
</svg>
